<?xml version="1.0" encoding="UTF-8"?>
<svg version="1.1" xmlns="http://www.w3.org/2000/svg" width="180" height="180">
<path d="M0 0 C2.1507987 -0.00961036 4.30060107 -0.04061049 6.45117188 -0.07226562 C30.70277924 -0.2595611 51.53015861 10.57125075 68.87304688 27.11523438 C80.33005166 39.00847782 87.58089042 54.37817214 91.68554688 70.24023438 C91.86061768 70.81161133 92.03568848 71.38298828 92.21606445 71.97167969 C93.26702832 77.04997205 92.91183675 82.38127888 92.92578125 87.5546875 C92.93539161 89.7054862 92.96639174 91.85528857 92.99804688 94.00585938 C93.08838034 105.52712564 91.22419668 115.77865028 86.43554688 126.30273438 C86.13036133 126.98045898 85.82517578 127.65818359 85.51074219 128.35644531 C75.48616163 150.08495549 57.20182933 167.66297788 34.61914062 176.00341797 C30.69042775 177.29216649 26.71307237 178.31461976 22.68554688 179.24023438 C21.82280151 179.50175293 21.82280151 179.50175293 20.94262695 179.76855469 C15.87146889 180.82831427 10.53928155 180.46653832 5.37109375 180.48046875 C3.22029505 180.49007911 1.07049268 180.52107924 -1.08007812 180.55273438 C-25.33168549 180.74002985 -46.15906486 169.909218 -63.50195312 153.36523438 C-75.07307525 141.37671706 -82.51393971 126.32263294 -86.31445312 110.24023438 C-86.48952393 109.66362061 -86.66459473 109.08700684 -86.8449707 108.49291992 C-87.90164719 103.42274106 -87.54076116 98.09245254 -87.5546875 92.92578125 C-87.56429786 90.77498255 -87.59529799 88.62518018 -87.62695312 86.47460938 C-87.8142486 62.22300201 -76.98343675 41.39562264 -60.43945312 24.05273438 C-48.45093581 12.48161225 -33.39685169 5.04074779 -17.31445312 1.24023438 C-16.73783936 1.06516357 -16.16122559 0.89009277 -15.56713867 0.7097168 C-10.49695981 -0.34695969 -5.16667129 0.01392634 0 0 Z M-49.31445312 21.24023438 C-50.12011719 21.81 -50.92578125 22.37976563 -51.75585938 22.96679688 C-66.48071849 33.79728793 -77.43524975 51.39006545 -81.31445312 69.24023438 C-81.51683594 70.11164063 -81.71921875 70.98304687 -81.92773438 71.88085938 C-86.52381186 94.76744929 -82.32515565 117.27761645 -70.50195312 137.24023438 C-69.78007813 138.23023438 -69.05820313 139.22023437 -68.31445312 140.24023438 C-67.65445313 140.24023438 -66.99445313 140.24023438 -66.31445312 140.24023438 C-66.06695312 141.00335938 -65.81945312 141.76648438 -65.56445312 142.55273438 C-64.18846768 145.51110307 -62.94143259 146.41950267 -60.31445312 148.24023438 C-60.27481445 147.64597656 -60.23517578 147.05171875 -60.19433594 146.43945312 C-60.00189145 143.70482753 -59.78335539 140.97286433 -59.56445312 138.24023438 C-59.47164062 136.83837891 -59.47164062 136.83837891 -59.37695312 135.40820312 C-58.80448105 128.58624419 -57.60475835 122.42996259 -52.52539062 117.50585938 C-45.15098657 113.42640181 -37.64862084 110.60386475 -29.56445312 108.24023438 C-23.70353679 106.46608185 -19.45807974 105.01900961 -15.62695312 100.05273438 C-15.25529256 96.7077893 -15.84611366 96.00541783 -17.55664062 93.19726562 C-20.35558903 88.33774171 -22.30283197 83.40639376 -24.12695312 78.11523438 C-24.59391602 76.83326172 -24.59391602 76.83326172 -25.0703125 75.52539062 C-27.00991151 69.97515345 -28.30429713 64.99195082 -26.75585938 59.12304688 C-26.15539922 56.56179206 -26.68173699 54.67188974 -27.25195312 52.11523438 C-29.01586708 43.02986932 -28.84006195 35.82905234 -25.31445312 27.24023438 C-24.98380859 26.18642578 -24.98380859 26.18642578 -24.64648438 25.11132812 C-22.95247746 20.57964466 -20.49852319 18.24010713 -16.37695312 15.74023438 C-6.64464842 11.4160892 6.02059761 10.94001154 16.04492188 14.64648438 C21.53637627 17.08445931 26.34140628 19.45648879 28.68554688 25.24023438 C29.27849264 28.89641509 29.49972618 32.54341182 29.68554688 36.24023438 C29.73984863 37.24489746 29.79415039 38.24956055 29.85009766 39.28466797 C30.00126704 42.33187343 30.12876198 45.37912527 30.24804688 48.42773438 C30.29123047 49.47509766 30.33441406 50.52246094 30.37890625 51.6015625 C30.48354197 54.14769835 30.58572233 56.69390615 30.68554688 59.24023438 C31.34554687 59.57023437 32.00554687 59.90023437 32.68554688 60.24023438 C33.0611491 65.87426781 31.95063629 70.48472591 30.34179688 75.88476562 C29.5960851 78.15380853 29.5960851 78.15380853 29.68554688 80.24023438 C29.02554688 80.24023438 28.36554688 80.24023438 27.68554688 80.24023438 C26.16738329 83.27656154 26.18947036 84.82970837 26.68554688 88.24023438 C35.2027016 102.22215311 47.92888388 107.07491678 63.02172852 111.00952148 C68.68598892 112.5184197 73.49973013 114.50995337 78.68554688 117.24023438 C81.50003602 118.0077827 81.50003602 118.0077827 83.68554688 118.24023438 C91.52402301 106.48252017 89.66324715 86.60899051 87.37695312 73.46679688 C84.7683497 61.29331422 79.94380045 50.90244417 73.68554688 40.24023438 C73.02554688 40.24023438 72.36554688 40.24023438 71.68554688 40.24023438 C71.37037109 39.19416016 71.37037109 39.19416016 71.04882812 38.12695312 C69.27157163 34.36365069 66.82303702 31.93851676 63.87304688 29.05273438 C63.35162109 28.51970703 62.83019531 27.98667969 62.29296875 27.4375 C59.29559552 24.462579 56.82236882 22.48663359 52.68554688 21.24023438 C52.68554688 20.58023437 52.68554688 19.92023437 52.68554688 19.24023438 C22.51637728 -1.9958655 -20.22584039 -1.53341457 -49.31445312 21.24023438 Z " fill="#AEAEAE" transform="translate(87.314453125,-0.240234375)"/>
<path d="M0 0 C2.1507987 -0.00961036 4.30060107 -0.04061049 6.45117188 -0.07226562 C30.70277924 -0.2595611 51.53015861 10.57125075 68.87304688 27.11523438 C80.33005166 39.00847782 87.58089042 54.37817214 91.68554688 70.24023438 C91.86061768 70.81161133 92.03568848 71.38298828 92.21606445 71.97167969 C93.26702832 77.04997205 92.91183675 82.38127888 92.92578125 87.5546875 C92.93539161 89.7054862 92.96639174 91.85528857 92.99804688 94.00585938 C93.08838034 105.52712564 91.22419668 115.77865028 86.43554688 126.30273438 C86.13036133 126.98045898 85.82517578 127.65818359 85.51074219 128.35644531 C75.48616163 150.08495549 57.20182933 167.66297788 34.61914062 176.00341797 C30.69042775 177.29216649 26.71307237 178.31461976 22.68554688 179.24023438 C21.82280151 179.50175293 21.82280151 179.50175293 20.94262695 179.76855469 C15.87146889 180.82831427 10.53928155 180.46653832 5.37109375 180.48046875 C3.22029505 180.49007911 1.07049268 180.52107924 -1.08007812 180.55273438 C-25.33168549 180.74002985 -46.15906486 169.909218 -63.50195312 153.36523438 C-75.07307525 141.37671706 -82.51393971 126.32263294 -86.31445312 110.24023438 C-86.48952393 109.66362061 -86.66459473 109.08700684 -86.8449707 108.49291992 C-87.90164719 103.42274106 -87.54076116 98.09245254 -87.5546875 92.92578125 C-87.56429786 90.77498255 -87.59529799 88.62518018 -87.62695312 86.47460938 C-87.8142486 62.22300201 -76.98343675 41.39562264 -60.43945312 24.05273438 C-48.45093581 12.48161225 -33.39685169 5.04074779 -17.31445312 1.24023438 C-16.73783936 1.06516357 -16.16122559 0.89009277 -15.56713867 0.7097168 C-10.49695981 -0.34695969 -5.16667129 0.01392634 0 0 Z M-49.31445312 21.24023438 C-50.12011719 21.81 -50.92578125 22.37976563 -51.75585938 22.96679688 C-66.48071849 33.79728793 -77.43524975 51.39006545 -81.31445312 69.24023438 C-81.51683594 70.11164063 -81.71921875 70.98304687 -81.92773438 71.88085938 C-86.52381186 94.76744929 -82.32515565 117.27761645 -70.50195312 137.24023438 C-69.78007813 138.23023438 -69.05820313 139.22023437 -68.31445312 140.24023438 C-67.65445313 140.24023438 -66.99445313 140.24023438 -66.31445312 140.24023438 C-66.06695312 141.00335938 -65.81945312 141.76648438 -65.56445312 142.55273438 C-64.18846768 145.51110307 -62.94143259 146.41950267 -60.31445312 148.24023438 C-60.27481445 147.64597656 -60.23517578 147.05171875 -60.19433594 146.43945312 C-60.00189145 143.70482753 -59.78335539 140.97286433 -59.56445312 138.24023438 C-59.47164062 136.83837891 -59.47164062 136.83837891 -59.37695312 135.40820312 C-58.80448105 128.58624419 -57.60475835 122.42996259 -52.52539062 117.50585938 C-45.15098657 113.42640181 -37.64862084 110.60386475 -29.56445312 108.24023438 C-21.57715446 105.93070995 -21.57715446 105.93070995 -16.06445312 100.05273438 C-15.81695312 99.45460938 -15.56945312 98.85648437 -15.31445312 98.24023438 C-14.65445313 97.91023438 -13.99445313 97.58023438 -13.31445312 97.24023438 C-13.6322876 97.81459229 -13.95012207 98.3889502 -14.27758789 98.98071289 C-15.9408774 102.60532895 -15.98931358 106.23814115 -16.25195312 110.17773438 C-16.33251953 110.97630859 -16.41308594 111.77488281 -16.49609375 112.59765625 C-16.54830078 113.37560547 -16.60050781 114.15355469 -16.65429688 114.95507812 C-16.709646 115.65753662 -16.76499512 116.35999512 -16.82202148 117.08374023 C-16.30553799 120.12630884 -16.30553799 120.12630884 -11.31445312 124.24023438 C-11.31445312 118.63023438 -11.31445312 113.02023438 -11.31445312 107.24023438 C-9.00409797 110.7057671 -8.89638654 113.16670047 -8.31445312 117.24023438 C-7.32445313 118.72523437 -7.32445313 118.72523437 -6.31445312 120.24023438 C-5.68945312 122.42773438 -5.68945312 122.42773438 -5.31445312 124.24023438 C-4.32445313 124.24023438 -3.33445312 124.24023438 -2.31445312 124.24023438 C-2.31445312 123.58023438 -2.31445312 122.92023438 -2.31445312 122.24023438 C0.57130507 122.63826999 1.50744201 123.03032507 3.43554688 125.30273438 C3.84804687 125.94210938 4.26054688 126.58148438 4.68554688 127.24023438 C14.16974939 123.49702363 20.34968788 108.91195236 24.68554688 100.24023438 C19.82002591 113.93292578 19.82002591 113.93292578 18.06054688 118.55273438 C16.75135461 122.06374998 15.56802052 125.59246405 14.43164062 129.16210938 C13.68554687 131.24023438 13.68554687 131.24023438 12.69335938 133.17382812 C8.82430853 141.10688199 8.36149887 150.01671044 7.93554688 158.67773438 C7.66037701 162.59890493 7.00489854 166.27650849 6.08789062 170.09179688 C5.63459325 172.51231686 5.62088675 174.78314978 5.68554688 177.24023438 C31.3681087 175.77410388 52.87406186 164.68591992 69.99804688 145.74023438 C81.16574985 131.97002835 88.06537151 115.03657085 88.68554688 97.24023438 C88.72550781 96.16257812 88.76546875 95.08492188 88.80664062 93.97460938 C89.18000204 74.03271726 83.67821444 57.26477911 73.68554688 40.24023438 C73.02554688 40.24023438 72.36554688 40.24023438 71.68554688 40.24023438 C71.37037109 39.19416016 71.37037109 39.19416016 71.04882812 38.12695312 C69.27157163 34.36365069 66.82303702 31.93851676 63.87304688 29.05273438 C63.35162109 28.51970703 62.83019531 27.98667969 62.29296875 27.4375 C59.29559552 24.462579 56.82236882 22.48663359 52.68554688 21.24023438 C52.68554688 20.58023437 52.68554688 19.92023437 52.68554688 19.24023438 C22.51637728 -1.9958655 -20.22584039 -1.53341457 -49.31445312 21.24023438 Z " fill="#C97ED5" transform="translate(87.314453125,-0.240234375)"/>
<path d="M0 0 C0.33 0 0.66 0 1 0 C2.04972376 7.61049724 2.04972376 7.61049724 1.625 10.9375 C2.35240206 16.87795014 7.15515276 21.2050135 11.3125 25.25 C19.52098599 30.59506064 27.91049561 33.3125202 37.3359375 35.76904297 C42.31477386 37.09568927 46.77767529 38.66244962 51.32177734 41.10620117 C53.47954292 42.25539811 55.71300593 43.14237722 58 44 C55.90295274 60.31840224 42.93580014 74.88412365 30.6328125 84.93359375 C16.31492987 95.47249424 -2.00162182 103.3919792 -20 103 C-19.85930804 100.87465341 -19.71229079 98.74972471 -19.5625 96.625 C-19.48128906 95.44164062 -19.40007812 94.25828125 -19.31640625 93.0390625 C-19 90 -19 90 -18 88 C-17.84111973 85.75213834 -17.72308716 83.50133381 -17.625 81.25 C-16.57482418 62.39957333 -16.57482418 62.39957333 -11 55 C-10.29851314 52.8568748 -9.68118016 50.68534507 -9.125 48.5 C-7.5466427 42.67221921 -5.58293316 37.23900767 -3.1484375 31.71875 C-0.85198293 26.28224531 0.35010516 21.95178775 0 16 C-0.495 15.505 -0.495 15.505 -1 15 C-1.24234375 15.59167969 -1.4846875 16.18335937 -1.734375 16.79296875 C-3.66396093 21.34233866 -5.45131936 25.45131936 -9 29 C-9.99 29 -10.98 29 -12 29 C-12.2475 29.61875 -12.495 30.2375 -12.75 30.875 C-14.30552932 33.51939985 -15.07621471 34.07669938 -18 35 C-23.14285714 35.57142857 -23.14285714 35.57142857 -26 35 C-28.6875 32.6875 -28.6875 32.6875 -31 30 C-31.928125 29.443125 -32.85625 28.88625 -33.8125 28.3125 C-34.534375 27.879375 -35.25625 27.44625 -36 27 C-36 26.34 -36 25.68 -36 25 C-32.7 25.33 -29.4 25.66 -26 26 C-26 23.16032769 -26.40267181 20.76264289 -27 18 C-24.03 18 -21.06 18 -18 18 C-18.33 19.32 -18.66 20.64 -19 22 C-14.34663889 20.89377913 -14.34663889 20.89377913 -11.3125 17.375 C-10.879375 16.59125 -10.44625 15.8075 -10 15 C-9.01 15 -8.02 15 -7 15 C-6.690625 14.21625 -6.38125 13.4325 -6.0625 12.625 C-5 10 -5 10 -4 8 C-2.68 8.33 -1.36 8.66 0 9 C0 6.03 0 3.06 0 0 Z " fill="#444444" transform="translate(113,74)"/>
<path d="M0 0 C0.33 0 0.66 0 1 0 C0.52930987 7.84483545 -2.22714405 14.69985765 -5 22 C-6.86298193 26.9434389 -8.65118985 31.88735342 -10.25390625 36.921875 C-11 39 -11 39 -11.9921875 40.93359375 C-15.86195088 48.86810859 -16.31904752 57.7758241 -16.75390625 66.4375 C-17.07469994 71.08137056 -17.94742601 75.47722114 -19 80 C-19.33784392 81.6657582 -19.67229536 83.33221747 -20 85 C-32.77693163 86.05983765 -48.11111305 84.25925796 -59 77 C-58.74340689 74.76914933 -58.46912686 72.54032877 -58.1875 70.3125 C-58.03667969 69.07113281 -57.88585938 67.82976562 -57.73046875 66.55078125 C-57.0045738 63.02223306 -55.89393607 61.00382333 -54 58 C-53.58413472 55.86647384 -53.58413472 55.86647384 -53.5625 53.8125 C-53.376875 52.554375 -53.19125 51.29625 -53 50 C-50.96484375 48.76171875 -50.96484375 48.76171875 -49 48 C-49.01160156 47.28972656 -49.02320313 46.57945312 -49.03515625 45.84765625 C-49.04869141 44.46900391 -49.04869141 44.46900391 -49.0625 43.0625 C-49.07410156 42.14597656 -49.08570313 41.22945312 -49.09765625 40.28515625 C-49 38 -49 38 -48 37 C-48.0059215 34.79128156 -48.0552855 32.5826259 -48.125 30.375 C-48.17235593 24.52654274 -47.65957375 21.11456491 -45 16 C-44.61243319 14.59210425 -44.25890283 13.17445733 -43.9375 11.75 C-43 8 -43 8 -41 5 C-40.34 5 -39.68 5 -39 5 C-39.144375 6.08539063 -39.28875 7.17078125 -39.4375 8.2890625 C-39.62519956 9.7343491 -39.81268838 11.17966307 -40 12.625 C-40.14308594 13.69427734 -40.14308594 13.69427734 -40.2890625 14.78515625 C-41.09924354 20.87717411 -41.09924354 20.87717411 -41 27 C-40.01 27.99 -39.02 28.98 -38 30 C-38 25.05 -38 20.1 -38 15 C-37.01 15 -36.02 15 -35 15 C-34.34 17.64 -33.68 20.28 -33 23 C-32.67 23 -32.34 23 -32 23 C-31.67 25.97 -31.34 28.94 -31 32 C-30.01 32 -29.02 32 -28 32 C-28 31.34 -28 30.68 -28 30 C-25.625 30.3125 -25.625 30.3125 -23 31 C-22.34 31.99 -21.68 32.98 -21 34 C-12.45996385 30.53933175 -6.9668785 17.83125368 -3 10 C-1.78026087 6.70713536 -0.79432603 3.41938444 0 0 Z " fill="#D5D5D5" transform="translate(113,92)"/>
<path d="M0 0 C0.33 0 0.66 0 1 0 C2.04972376 7.61049724 2.04972376 7.61049724 1.625 10.9375 C2.29909899 16.44264177 6.49710974 20.96604855 10.73046875 24.40625 C11.25253906 24.7878125 11.77460937 25.169375 12.3125 25.5625 C15.80962871 28.73431442 16.4458103 31.41869851 17 36 C17.125 39 17.125 39 17 41 C14.69 41.99 12.38 42.98 10 44 C12.31 44.99 14.62 45.98 17 47 C16.28031337 50.18294396 15.25157765 53.14974313 14.0625 56.1875 C13.72347656 57.06792969 13.38445312 57.94835937 13.03515625 58.85546875 C12 61 12 61 10 62 C8.96165158 64.65817195 8.02002486 67.2938794 7.125 70 C5.23955045 75.54207897 3.30189889 80.95427783 0.76171875 86.23828125 C-0.05699444 88.13181792 -0.55171762 89.98938693 -1 92 C-1.66 92 -2.32 92 -3 92 C-3 94.97 -3 97.94 -3 101 C-4.89492006 101.33848652 -6.79098466 101.67056911 -8.6875 102 C-9.74324219 102.185625 -10.79898438 102.37125 -11.88671875 102.5625 C-14.64904062 102.95068074 -17.21742043 103.08259976 -20 103 C-19.85930804 100.87465341 -19.71229079 98.74972471 -19.5625 96.625 C-19.48128906 95.44164062 -19.40007812 94.25828125 -19.31640625 93.0390625 C-19 90 -19 90 -18 88 C-17.84111973 85.75213834 -17.72308716 83.50133381 -17.625 81.25 C-16.57482418 62.39957333 -16.57482418 62.39957333 -11 55 C-10.29851314 52.8568748 -9.68118016 50.68534507 -9.125 48.5 C-7.5466427 42.67221921 -5.58293316 37.23900767 -3.1484375 31.71875 C-0.85198293 26.28224531 0.35010516 21.95178775 0 16 C-0.495 15.505 -0.495 15.505 -1 15 C-1.24234375 15.59167969 -1.4846875 16.18335937 -1.734375 16.79296875 C-3.66396093 21.34233866 -5.45131936 25.45131936 -9 29 C-9.99 29 -10.98 29 -12 29 C-12.2475 29.61875 -12.495 30.2375 -12.75 30.875 C-14.30552932 33.51939985 -15.07621471 34.07669938 -18 35 C-23.14285714 35.57142857 -23.14285714 35.57142857 -26 35 C-28.6875 32.6875 -28.6875 32.6875 -31 30 C-31.928125 29.443125 -32.85625 28.88625 -33.8125 28.3125 C-34.534375 27.879375 -35.25625 27.44625 -36 27 C-36 26.34 -36 25.68 -36 25 C-32.7 25.33 -29.4 25.66 -26 26 C-26 23.16032769 -26.40267181 20.76264289 -27 18 C-24.03 18 -21.06 18 -18 18 C-18.33 19.32 -18.66 20.64 -19 22 C-14.34663889 20.89377913 -14.34663889 20.89377913 -11.3125 17.375 C-10.879375 16.59125 -10.44625 15.8075 -10 15 C-9.01 15 -8.02 15 -7 15 C-6.690625 14.21625 -6.38125 13.4325 -6.0625 12.625 C-5 10 -5 10 -4 8 C-2.68 8.33 -1.36 8.66 0 9 C0 6.03 0 3.06 0 0 Z " fill="#4D4D4D" transform="translate(113,74)"/>
<path d="M0 0 C1.24394531 -0.03738281 2.48789063 -0.07476562 3.76953125 -0.11328125 C7.1875 0.3125 7.1875 0.3125 9.5625 2.16015625 C11.80443436 5.12964143 12.4043794 6.55325706 12.1875 10.3125 C10.48822726 12.50219576 8.67504799 14.38670968 6.65625 16.28515625 C4.89032629 18.26003818 4.89032629 18.26003818 5.40625 20.99609375 C5.97472669 23.2477424 5.97472669 23.2477424 7.1875 24.3125 C7.66073944 30.70123239 7.66073944 30.70123239 5.6875 33.25 C5.1925 33.600625 4.6975 33.95125 4.1875 34.3125 C4.1875 33.6525 4.1875 32.9925 4.1875 32.3125 C3.53394531 32.65023437 2.88039062 32.98796875 2.20703125 33.3359375 C-1.67097812 34.59014493 -5.13491834 34.29407566 -9.125 33.9375 C-10.23584961 33.85242188 -10.23584961 33.85242188 -11.36914062 33.765625 C-13.18443743 33.62508589 -14.99861597 33.47022905 -16.8125 33.3125 C-16.8125 33.9725 -16.8125 34.6325 -16.8125 35.3125 C-18.1325 35.3125 -19.4525 35.3125 -20.8125 35.3125 C-19.8225 40.7575 -19.8225 40.7575 -18.8125 46.3125 C-17.86375 46.621875 -16.915 46.93125 -15.9375 47.25 C-12.8125 48.3125 -12.8125 48.3125 -10.8125 49.3125 C-14.81450378 50.91330151 -17.85806236 49.60529692 -21.8125 48.3125 C-21.8125 48.9725 -21.8125 49.6325 -21.8125 50.3125 C-21.11125 50.539375 -20.41 50.76625 -19.6875 51 C-16.8125 52.3125 -16.8125 52.3125 -13.9375 54.9375 C-10.98297593 57.58436586 -10.98297593 57.58436586 -7.25 57.8125 C-3.65636009 57.28978874 -1.67950262 56.50491377 1.1875 54.3125 C1.6825 53.3225 1.6825 53.3225 2.1875 52.3125 C3.1775 52.3125 4.1675 52.3125 5.1875 52.3125 C5.455625 51.735 5.72375 51.1575 6 50.5625 C7.1875 48.3125 7.1875 48.3125 8.625 46.5 C10.69658915 43.59977518 11.85339755 40.61599178 13.1875 37.3125 C14.79721304 39.77339224 15.24860802 40.92009067 14.7890625 43.87109375 C10.59582407 56.23276064 3.5872989 66.41592842 -4.8125 76.3125 C-8.6875 74.5625 -8.6875 74.5625 -9.8125 72.3125 C-11.83713255 71.66036708 -11.83713255 71.66036708 -13.8125 71.3125 C-13.8125 71.9725 -13.8125 72.6325 -13.8125 73.3125 C-14.8025 73.3125 -15.7925 73.3125 -16.8125 73.3125 C-17.4725 71.0025 -18.1325 68.6925 -18.8125 66.3125 C-19.1425 66.3125 -19.4725 66.3125 -19.8125 66.3125 C-20.4725 63.0125 -21.1325 59.7125 -21.8125 56.3125 C-22.1425 56.3125 -22.4725 56.3125 -22.8125 56.3125 C-22.8125 61.9225 -22.8125 67.5325 -22.8125 73.3125 C-27.8125 68.3125 -27.8125 68.3125 -28.32006836 66.15600586 C-28.26471924 65.45354736 -28.20937012 64.75108887 -28.15234375 64.02734375 C-28.10013672 63.24939453 -28.04792969 62.47144531 -27.99414062 61.66992188 C-27.87329102 60.47206055 -27.87329102 60.47206055 -27.75 59.25 C-27.69650391 58.44755859 -27.64300781 57.64511719 -27.58789062 56.81835938 C-27.27104665 52.79944366 -26.78717227 49.88092551 -24.8125 46.3125 C-25.8025 46.3125 -26.7925 46.3125 -27.8125 46.3125 C-28.63087442 44.89921871 -29.44196219 43.48171654 -30.25 42.0625 C-30.70246094 41.27359375 -31.15492187 40.4846875 -31.62109375 39.671875 C-33.89829075 35.16227832 -33.90928344 31.34523878 -33.8125 26.3125 C-32.3275 27.3025 -32.3275 27.3025 -30.8125 28.3125 C-30.19375 27.36375 -29.575 26.415 -28.9375 25.4375 C-25.56080954 20.47177874 -25.56080954 20.47177874 -22.8671875 19.8984375 C-20.84895833 19.703125 -18.83072917 19.5078125 -16.8125 19.3125 C-17.1425 20.9625 -17.4725 22.6125 -17.8125 24.3125 C-12.3675 23.3225 -12.3675 23.3225 -6.8125 22.3125 C-7.4725 21.3225 -8.1325 20.3325 -8.8125 19.3125 C-9.0078125 16.39453125 -9.0078125 16.39453125 -8.9375 13.125 C-8.91945313 12.03832031 -8.90140625 10.95164062 -8.8828125 9.83203125 C-8.85960938 9.00058594 -8.83640625 8.16914062 -8.8125 7.3125 C-12.34483755 8.48994585 -12.67558075 9.26855641 -14.5 12.375 C-14.93699219 13.10847656 -15.37398437 13.84195313 -15.82421875 14.59765625 C-16.15035156 15.16355469 -16.47648437 15.72945312 -16.8125 16.3125 C-24.5625 15.4375 -24.5625 15.4375 -26.8125 14.3125 C-26.8125 13.6525 -26.8125 12.9925 -26.8125 12.3125 C-28.1325 12.3125 -29.4525 12.3125 -30.8125 12.3125 C-31.1875 9.625 -31.1875 9.625 -30.8125 6.3125 C-28.69831683 3.53385927 -27.9210776 2.59708216 -24.8125 1.3125 C-20.44495866 0.88494639 -16.18668088 1.05818716 -11.8125 1.3125 C-10.4925 1.3125 -9.1725 1.3125 -7.8125 1.3125 C-5.88285936 -0.61714064 -2.56524242 0.05019527 0 0 Z " fill="#8F8F8F" transform="translate(98.8125,50.6875)"/>
<path d="M0 0 C0.29981892 3.29800817 0.02886936 4.94346418 -1.5 7.9375 C-3.73101099 12.66015411 -3.1755398 17.58522081 -3.0078125 22.6953125 C-3.00078727 25.66698521 -3.3600631 28.11780356 -4 31 C-3.979375 32.051875 -3.95875 33.10375 -3.9375 34.1875 C-4 37 -4 37 -6 39 C-6.99 39 -7.98 39 -9 39 C-8.8453125 40.7015625 -8.8453125 40.7015625 -8.6875 42.4375 C-8.66306812 47.06326923 -10.37934167 49.8184975 -12.75390625 53.6796875 C-14.71232531 57.32639884 -15.2912627 60.94086818 -16 65 C-22.92948273 62.96433593 -28.2158054 59.22865401 -34 55 C-34.84304687 54.401875 -35.68609375 53.80375 -36.5546875 53.1875 C-40.03550383 50.31365876 -41.76995482 48.32518983 -42.5546875 43.8046875 C-42.62722591 40.13746771 -42.40236386 36.64494323 -42 33 C-41.88914062 31.89140625 -41.77828125 30.7828125 -41.6640625 29.640625 C-40.80619936 23.13381402 -39.72308914 17.92159079 -34.3125 13.67578125 C-26.29478781 8.29292206 -17.06848486 5.60791968 -7.8828125 2.9296875 C-5.49932059 2.16102751 -2.46195165 0 0 0 Z " fill="#9A9A9A" transform="translate(69,103)"/>
<path d="M0 0 C9.86622995 5.21636564 9.86622995 5.21636564 11.67358398 10.63842773 C12.6962623 18.26396195 12.91113999 25.95416993 12.98608398 33.63842773 C13.01508789 34.6606543 13.0440918 35.68288086 13.07397461 36.73608398 C13.08235352 37.71448242 13.09073242 38.69288086 13.09936523 39.70092773 C13.11394775 40.5787793 13.12853027 41.45663086 13.14355469 42.36108398 C12.67358398 44.63842773 12.67358398 44.63842773 10.64697266 46.44702148 C9.99575439 46.84018555 9.34453613 47.23334961 8.67358398 47.63842773 C6.52578418 45.49062793 7.27255917 40.21000322 7.15600586 37.18530273 C6.96698418 33.51899548 6.75714441 31.76376837 4.67358398 28.63842773 C4.36420898 27.46280273 4.05483398 26.28717773 3.73608398 25.07592773 C2.99507421 21.39693367 2.99507421 21.39693367 -0.32641602 19.63842773 C-3.31002797 19.35461132 -3.31002797 19.35461132 -6.76391602 19.45092773 C-7.40337158 19.45737305 -8.04282715 19.46381836 -8.70166016 19.47045898 C-17.58430205 19.6050604 -26.45865508 20.13427077 -35.32641602 20.63842773 C-40.22598755 28.48497403 -41.18114317 35.47303213 -41.32641602 44.63842773 C-42.81141602 45.13342773 -42.81141602 45.13342773 -44.32641602 45.63842773 C-47.20360752 33.75288662 -49.12127434 24.13778492 -44.32641602 12.63842773 C-44.05958008 11.92428711 -43.79274414 11.21014648 -43.51782227 10.47436523 C-41.14077383 4.83283694 -37.77942454 2.25830893 -32.32641602 -0.36157227 C-31.62258789 -0.72379883 -30.91875977 -1.08602539 -30.19360352 -1.45922852 C-21.03129737 -4.34273358 -8.72241977 -4.04996935 0 0 Z " fill="#1C1C1C" transform="translate(105.326416015625,14.361572265625)"/>
<path d="M0 0 C0.66 0 1.32 0 2 0 C4.70503231 6.56936419 6.59387505 11.87349945 6 19 C6 20.11375 6 21.2275 6 22.375 C4.69856273 27.09271011 2.1792385 29.90737398 -0.9921875 33.5703125 C-4.25701867 37.52113932 -6.27119552 40.89836861 -7 46 C-1.12457209 44.47238874 4.03001282 42.96998718 8.4375 38.5625 C11.45416206 35.54583794 14.20746784 33.93204468 18 32 C18.66 32 19.32 32 20 32 C20.02712351 34.39591038 20.0468982 36.79150957 20.0625 39.1875 C20.07087891 39.86103516 20.07925781 40.53457031 20.08789062 41.22851562 C20.10606538 44.95434131 19.89299392 48.3788042 19 52 C6.22306837 53.05983765 -9.11111305 51.25925796 -20 44 C-19.74340689 41.76914933 -19.46912686 39.54032877 -19.1875 37.3125 C-19.03667969 36.07113281 -18.88585938 34.82976562 -18.73046875 33.55078125 C-18.0045738 30.02223306 -16.89393607 28.00382333 -15 25 C-14.58413472 22.86647384 -14.58413472 22.86647384 -14.5625 20.8125 C-14.376875 19.554375 -14.19125 18.29625 -14 17 C-12.68 16.34 -11.36 15.68 -10 15 C-10 11.7 -10 8.4 -10 5 C-8.35 4.67 -6.7 4.34 -5 4 C-4.38125 4.825 -3.7625 5.65 -3.125 6.5 C-2.42375 7.325 -1.7225 8.15 -1 9 C-0.34 9 0.32 9 1 9 C1 8.34 1 7.68 1 7 C0.01 6.67 -0.98 6.34 -2 6 C-1.34 4.02 -0.68 2.04 0 0 Z " fill="#EFEFEF" transform="translate(74,125)"/>
<path d="M0 0 C2.35953094 2.35953094 2.49141413 3.77895617 3 7 C3.66 6.34 4.32 5.68 5 5 C5 5.66 5 6.32 5 7 C5.721875 7.226875 6.44375 7.45375 7.1875 7.6875 C10.98895367 9.46151171 14.21005632 11.85653351 15.70288086 15.90722656 C16.0454849 18.32037514 15.72439549 19.78975111 15.00390625 22.109375 C14.77509766 22.86347656 14.54628906 23.61757812 14.31054688 24.39453125 C14.06369141 25.17183594 13.81683594 25.94914062 13.5625 26.75 C13.31951172 27.54277344 13.07652344 28.33554688 12.82617188 29.15234375 C12.22645805 31.10435346 11.61441879 33.05256883 11 35 C10.34 35 9.68 35 9 35 C9 37.97 9 40.94 9 44 C7.10507994 44.33848652 5.20901534 44.67056911 3.3125 45 C2.25675781 45.185625 1.20101562 45.37125 0.11328125 45.5625 C-2.64904062 45.95068074 -5.21742043 46.08259976 -8 46 C-7.85930804 43.87465341 -7.71229079 41.74972471 -7.5625 39.625 C-7.48128906 38.44164062 -7.40007812 37.25828125 -7.31640625 36.0390625 C-7 33 -7 33 -6 31 C-5.84111973 28.75213834 -5.72308716 26.50133381 -5.625 24.25 C-4.54650825 4.54650825 -4.54650825 4.54650825 0 0 Z " fill="#7A7A7A" transform="translate(101,131)"/>
<path d="M0 0 C1.60971304 2.46089224 2.06110802 3.60759067 1.6015625 6.55859375 C-2.59167593 18.92026064 -9.6002011 29.10342842 -18 39 C-21.875 37.25 -21.875 37.25 -23 35 C-25.02463255 34.34786708 -25.02463255 34.34786708 -27 34 C-27 34.66 -27 35.32 -27 36 C-27.99 36 -28.98 36 -30 36 C-30.66 33.69 -31.32 31.38 -32 29 C-32.33 29 -32.66 29 -33 29 C-33.66 25.7 -34.32 22.4 -35 19 C-35.33 19 -35.66 19 -36 19 C-36 24.61 -36 30.22 -36 36 C-41 31 -41 31 -41.5234375 28.82763672 C-41.47445312 28.11881348 -41.42546875 27.40999023 -41.375 26.6796875 C-41.32730469 25.89722656 -41.27960938 25.11476563 -41.23046875 24.30859375 C-41.15441406 23.50550781 -41.07835938 22.70242187 -41 21.875 C-40.93232422 20.65876953 -40.93232422 20.65876953 -40.86328125 19.41796875 C-40.42154258 13.47903779 -40.42154258 13.47903779 -38.45703125 11.24658203 C-37.97621094 10.83520996 -37.49539062 10.42383789 -37 10 C-35.20674674 11.28946305 -33.41544722 12.58164352 -31.625 13.875 C-30.62726563 14.59429687 -29.62953125 15.31359375 -28.6015625 16.0546875 C-26 18 -26 18 -24 20 C-19.01928939 20.46987836 -16.00239939 20.06065836 -12 17 C-11.67 16.34 -11.34 15.68 -11 15 C-10.01 15 -9.02 15 -8 15 C-7.731875 14.4225 -7.46375 13.845 -7.1875 13.25 C-6 11 -6 11 -4.5625 9.1875 C-2.49091085 6.28727518 -1.33410245 3.30349178 0 0 Z " fill="#9B9B9B" transform="translate(112,88)"/>
<path d="M0 0 C1.98 0.66 3.96 1.32 6 2 C5.01 2.495 5.01 2.495 4 3 C4 3.66 4 4.32 4 5 C4.66 5 5.32 5 6 5 C6.46422076 13.62676918 5.98026929 21.54565128 4.1875 30 C3.9395166 31.18203003 3.9395166 31.18203003 3.68652344 32.38793945 C2.32606924 38.42095174 0.3311275 43.67052688 -2.75 49.0625 C-5.21024129 54.59485605 -3.6701307 61.17874414 -3 67 C-8.36190101 69.61407872 -13.03435204 71.49228528 -19 72 C-18.67 69.36 -18.34 66.72 -18 64 C-17.34 64 -16.68 64 -16 64 C-15.87625 62.824375 -15.87625 62.824375 -15.75 61.625 C-14.95731805 57.79370388 -13.68497966 54.53604247 -12.17578125 50.94140625 C-10.32266927 46.30554803 -8.80301378 41.55081902 -7.24609375 36.80859375 C-6.83488281 35.88175781 -6.42367187 34.95492187 -6 34 C-4.515 33.505 -4.515 33.505 -3 33 C-2.9175 32.360625 -2.835 31.72125 -2.75 31.0625 C-1.70479628 26.79458483 0.14091826 22.96892333 2 19 C0.2984375 18.566875 0.2984375 18.566875 -1.4375 18.125 C-2.613125 17.75375 -3.78875 17.3825 -5 17 C-5.33 16.34 -5.66 15.68 -6 15 C-3.36 14.34 -0.72 13.68 2 13 C1.855625 12.39671875 1.71125 11.7934375 1.5625 11.171875 C1.376875 10.37265625 1.19125 9.5734375 1 8.75 C0.814375 7.96109375 0.62875 7.1721875 0.4375 6.359375 C0 4 0 4 0 0 Z " fill="#414141" transform="translate(128,102)"/>
<path d="M0 0 C6.72348141 1.12058024 6.72348141 1.12058024 10.0625 2.9375 C12.98921525 4.48231131 15.89584239 5.8359409 19 7 C17.59321353 17.94706251 10.98902618 27.68469806 4 36 C3.01 36.66 2.02 37.32 1 38 C1.33 35.69 1.66 33.38 2 31 C1.525625 31.825 1.05125 32.65 0.5625 33.5 C0.046875 34.325 -0.46875 35.15 -1 36 C-1.33 36 -1.66 36 -2 36 C-2 30.72 -2 25.44 -2 20 C-1.34 20 -0.68 20 0 20 C0 19.34 0 18.68 0 18 C-0.66 18 -1.32 18 -2 18 C-1.34 12.06 -0.68 6.12 0 0 Z " fill="#464646" transform="translate(152,111)"/>
<path d="M0 0 C8.18018201 4.32493673 8.18018201 4.32493673 10.67358398 7.63842773 C11.18530273 9.90014648 11.18530273 9.90014648 11.36108398 12.32592773 C11.45969727 13.53829102 11.45969727 13.53829102 11.56030273 14.77514648 C11.61637695 15.6974707 11.61637695 15.6974707 11.67358398 16.63842773 C10.68358398 16.63842773 9.69358398 16.63842773 8.67358398 16.63842773 C7.68358398 14.32842773 6.69358398 12.01842773 5.67358398 9.63842773 C4.35358398 9.63842773 3.03358398 9.63842773 1.67358398 9.63842773 C1.67358398 8.97842773 1.67358398 8.31842773 1.67358398 7.63842773 C0.68358398 7.96842773 -0.30641602 8.29842773 -1.32641602 8.63842773 C-1.82141602 7.15342773 -1.82141602 7.15342773 -2.32641602 5.63842773 C-2.98641602 5.63842773 -3.64641602 5.63842773 -4.32641602 5.63842773 C-4.98641602 6.29842773 -5.64641602 6.95842773 -6.32641602 7.63842773 C-8.48114801 6.05829094 -10.43288236 4.53196139 -12.32641602 2.63842773 C-19.90873111 0.83033721 -27.28550332 1.83683394 -34.54516602 4.43139648 C-36.51158732 5.50940237 -36.51158732 5.50940237 -37.08422852 7.73217773 C-37.20540039 8.52624023 -37.32657227 9.32030273 -37.45141602 10.13842773 C-38.13722683 14.44923855 -38.13722683 14.44923855 -40.32641602 16.63842773 C-40.49329049 19.22196992 -40.49329049 19.22196992 -40.32641602 21.63842773 C-39.00641602 21.96842773 -37.68641602 22.29842773 -36.32641602 22.63842773 C-36.96579102 23.66967773 -37.60516602 24.70092773 -38.26391602 25.76342773 C-41.29106851 31.6893729 -41.14295486 38.10721065 -41.32641602 44.63842773 C-42.81141602 45.13342773 -42.81141602 45.13342773 -44.32641602 45.63842773 C-47.20360752 33.75288662 -49.12127434 24.13778492 -44.32641602 12.63842773 C-44.05958008 11.92428711 -43.79274414 11.21014648 -43.51782227 10.47436523 C-41.14077383 4.83283694 -37.77942454 2.25830893 -32.32641602 -0.36157227 C-31.62258789 -0.72379883 -30.91875977 -1.08602539 -30.19360352 -1.45922852 C-21.03129737 -4.34273358 -8.72241977 -4.04996935 0 0 Z " fill="#373737" transform="translate(105.326416015625,14.361572265625)"/>
<path d="M0 0 C6.75 1.75 6.75 1.75 9 4 C9.56949153 10.26440678 9.56949153 10.26440678 7.5 12.9375 C7.005 13.288125 6.51 13.63875 6 14 C6 13.34 6 12.68 6 12 C5.34644531 12.33773437 4.69289062 12.67546875 4.01953125 13.0234375 C0.14152188 14.27764493 -3.32241834 13.98157566 -7.3125 13.625 C-8.05306641 13.56828125 -8.79363281 13.5115625 -9.55664062 13.453125 C-11.37193743 13.31258589 -13.18611597 13.15772905 -15 13 C-15 13.66 -15 14.32 -15 15 C-16.32 15 -17.64 15 -19 15 C-18.34 18.63 -17.68 22.26 -17 26 C-16.05125 26.309375 -15.1025 26.61875 -14.125 26.9375 C-11 28 -11 28 -9 29 C-13.93996765 30.85248787 -19.14243904 29.82558265 -23.8125 27.75 C-26.3487837 25.72097304 -27.66847817 23.9589374 -29 21 C-28.505 19.515 -28.505 19.515 -28 18 C-26.02 17.67 -24.04 17.34 -22 17 C-22.33 16.01 -22.66 15.02 -23 14 C-23.1875 10.4375 -23.1875 10.4375 -23 7 C-21 5 -21 5 -17.69921875 4.83984375 C-16.36177435 4.86246719 -15.02447433 4.89544075 -13.6875 4.9375 C-9.27808246 5.03683066 -5.29169109 5.07084749 -1 4 C-1.9481262 6.37031549 -2.68896678 7.76672508 -4.75 9.3125 C-8.38683398 10.42375483 -11.64126297 9.67936852 -15 8 C-15 8.99 -15 9.98 -15 11 C-8.73 10.34 -2.46 9.68 4 9 C3.01 8.67 2.02 8.34 1 8 C1.33 6.35 1.66 4.7 2 3 C1.34 2.67 0.68 2.34 0 2 C0 1.34 0 0.68 0 0 Z " fill="#757574" transform="translate(97,71)"/>
<path d="M0 0 C0.02712351 2.39591038 0.0468982 4.79150957 0.0625 7.1875 C0.07087891 7.86103516 0.07925781 8.53457031 0.08789062 9.22851562 C0.10606538 12.95434131 -0.10700608 16.3788042 -1 20 C-13.15362095 20.81750814 -23.40656162 18.49425484 -35 15 C-35 14.67 -35 14.34 -35 14 C-33.35 13.67 -31.7 13.34 -30 13 C-30.99 12.34 -31.98 11.68 -33 11 C-32.34 10.34 -31.68 9.68 -31 9 C-29.68 9 -28.36 9 -27 9 C-27 10.65 -27 12.3 -27 14 C-21.12457209 12.47238874 -15.96998718 10.96998718 -11.5625 6.5625 C-8.51386515 3.51386515 -4.52376263 0 0 0 Z " fill="#E9E7EA" transform="translate(94,157)"/>
<path d="M0 0 C0.33 0 0.66 0 1 0 C1.265625 16.203125 1.265625 16.203125 -1 23 C0.98 22.34 2.96 21.68 5 21 C5.33 21.99 5.66 22.98 6 24 C3.69 24 1.38 24 -1 24 C0.82958835 27.87224408 0.82958835 27.87224408 4.4375 29.875 C7.27154378 30.13718746 7.27154378 30.13718746 11 29 C10.67 33.62 10.34 38.24 10 43 C-2.1875 45.14285714 -2.1875 45.14285714 -7 45 C-6.85930804 42.87465341 -6.71229079 40.74972471 -6.5625 38.625 C-6.48128906 37.44164062 -6.40007812 36.25828125 -6.31640625 35.0390625 C-6 32 -6 32 -5 30 C-4.84111973 27.75213834 -4.72308716 25.50133381 -4.625 23.25 C-3.56812613 3.56812613 -3.56812613 3.56812613 0 0 Z " fill="#828182" transform="translate(100,132)"/>
<path d="M0 0 C0.33 0 0.66 0 1 0 C1 2.97 1 5.94 1 9 C1.66 9 2.32 9 3 9 C3 10.98 3 12.96 3 15 C4.32 15 5.64 15 7 15 C7 15.66 7 16.32 7 17 C10.3 17.33 13.6 17.66 17 18 C17.763125 16.68 18.52625 15.36 19.3125 14 C20.61328125 11.75 20.61328125 11.75 22 10 C22.99 10 23.98 10 25 10 C25.06058594 10.83144531 25.12117188 11.66289063 25.18359375 12.51953125 C25.30927734 14.14955078 25.30927734 14.14955078 25.4375 15.8125 C25.55931641 17.43091797 25.55931641 17.43091797 25.68359375 19.08203125 C25.90212461 22.05989905 25.90212461 22.05989905 27 25 C23.17679443 26.42258812 20.08718695 27.24042276 16 27 C16 25.68 16 24.36 16 23 C10.75972138 23.2591649 10.75972138 23.2591649 6.75 26.375 C6.1725 27.24125 5.595 28.1075 5 29 C4.01769502 30.0173873 3.02530403 31.02596117 2 32 C1.67 31.67 1.34 31.34 1 31 C0.01 32.485 0.01 32.485 -1 34 C-2.32 30.04 -3.64 26.08 -5 22 C-4.34 22 -3.68 22 -3 22 C-3 20.68 -3 19.36 -3 18 C-2.34 18 -1.68 18 -1 18 C-1.33 20.31 -1.66 22.62 -2 25 C-1.34 25 -0.68 25 0 25 C0 16.75 0 8.5 0 0 Z " fill="#CECECD" transform="translate(65,48)"/>
<path d="M0 0 C0.33 0 0.66 0 1 0 C1 2.64 1 5.28 1 8 C-0.32 7.67 -1.64 7.34 -3 7 C-3.309375 7.78375 -3.61875 8.5675 -3.9375 9.375 C-5 12 -5 12 -6 14 C-6.99 14 -7.98 14 -9 14 C-9.28875 14.78375 -9.5775 15.5675 -9.875 16.375 C-11 19 -11 19 -13 21 C-15.625 21.125 -15.625 21.125 -18 21 C-18 20.01 -18 19.02 -18 18 C-20.64 17.67 -23.28 17.34 -26 17 C-25.42655063 19.86724686 -25.1385485 20.8614515 -23 23 C-24.6875 24.125 -24.6875 24.125 -27 25 C-31.3 23.7 -31.3 23.7 -33 22 C-33.23363881 20.15108054 -33.41303635 18.29511969 -33.5625 16.4375 C-33.68818359 14.91962891 -33.68818359 14.91962891 -33.81640625 13.37109375 C-33.87699219 12.58863281 -33.93757813 11.80617188 -34 11 C-32.68 11 -31.36 11 -30 11 C-30 10.34 -30 9.68 -30 9 C-22.66666667 9 -15.33333333 9 -8 9 C-7.67 8.34 -7.34 7.68 -7 7 C-6.01 6.67 -5.02 6.34 -4 6 C-2.6296945 4.02514795 -1.29327628 2.02613283 0 0 Z " fill="#8A8A8A" transform="translate(112,75)"/>
<path d="M0 0 C-0.33 1.32 -0.66 2.64 -1 4 C7.91 3.01 7.91 3.01 17 2 C17 6 17 6 16 8 C17.32 8.33 18.64 8.66 20 9 C20 9.33 20 9.66 20 10 C13.30386804 10.797837 6.74233419 11.12910853 0 11 C0 10.01 0 9.02 0 8 C1.8253125 8.3403125 1.8253125 8.3403125 3.6875 8.6875 C6.87858396 9.09487242 7.886164 9.05086289 10.9375 7.6875 C13.08980875 6.16126242 13.08980875 6.16126242 14 4 C13.33484375 4.32871094 12.6696875 4.65742187 11.984375 4.99609375 C8.34509162 6.22030295 5.03368705 6.18279063 1.25 6.0625 C-1.17158977 6.00093416 -3.57656454 5.97931214 -6 6 C-7.25949049 7.03406673 -7.25949049 7.03406673 -7.09765625 9.28515625 C-7.08605469 10.20167969 -7.07445313 11.11820313 -7.0625 12.0625 C-7.04896484 13.44115234 -7.04896484 13.44115234 -7.03515625 14.84765625 C-7.02355469 15.55792969 -7.01195313 16.26820312 -7 17 C-7.61875 17.12375 -8.2375 17.2475 -8.875 17.375 C-11.19120832 17.87197356 -11.19120832 17.87197356 -13 20 C-15.53435666 17.7962116 -16.53691481 16.33421339 -17 13 C-17.03888349 10.66699067 -17.0448635 8.33290199 -17 6 C-15.515 6.99 -15.515 6.99 -14 8 C-13.38125 7.05125 -12.7625 6.1025 -12.125 5.125 C-8.85257549 0.31261101 -8.85257549 0.31261101 -6.125 -0.6875 C-3.78011931 -1.0323354 -2.23907765 -0.71970353 0 0 Z " fill="#80807F" transform="translate(82,71)"/>
<path d="M0 0 C1.98 0.66 3.96 1.32 6 2 C5.01 2.495 5.01 2.495 4 3 C4 3.66 4 4.32 4 5 C4.66 5 5.32 5 6 5 C6.46422076 13.62676918 5.98026929 21.54565128 4.1875 30 C4.02217773 30.78802002 3.85685547 31.57604004 3.68652344 32.38793945 C2.5990285 37.21049821 1.08111308 41.51576781 -1 46 C-1.66 46 -2.32 46 -3 46 C-3.06058594 45.37351563 -3.12117188 44.74703125 -3.18359375 44.1015625 C-3.26738281 43.28429687 -3.35117188 42.46703125 -3.4375 41.625 C-3.55931641 40.40683594 -3.55931641 40.40683594 -3.68359375 39.1640625 C-3.89090114 36.95727195 -3.89090114 36.95727195 -5 35 C-4.07421875 32.3203125 -4.07421875 32.3203125 -2.6875 29.125 C-2.23761719 28.07570312 -1.78773437 27.02640625 -1.32421875 25.9453125 C-0.26835603 23.59687447 0.82235213 21.28894938 2 19 C0.2984375 18.566875 0.2984375 18.566875 -1.4375 18.125 C-2.613125 17.75375 -3.78875 17.3825 -5 17 C-5.33 16.34 -5.66 15.68 -6 15 C-3.36 14.34 -0.72 13.68 2 13 C1.855625 12.39671875 1.71125 11.7934375 1.5625 11.171875 C1.376875 10.37265625 1.19125 9.5734375 1 8.75 C0.814375 7.96109375 0.62875 7.1721875 0.4375 6.359375 C0 4 0 4 0 0 Z " fill="#2F2F2F" transform="translate(128,102)"/>
<path d="M0 0 C4.64362466 0.46436247 8.0391502 1.86951306 12.09765625 4.01171875 C14.33924595 5.17624071 16.63602397 6.11350899 19 7 C18.44380331 11.6889493 17.11817327 15.19924267 14.9375 19.375 C14.38964844 20.43460938 13.84179688 21.49421875 13.27734375 22.5859375 C12.85582031 23.38257813 12.43429688 24.17921875 12 25 C11.67 25 11.34 25 11 25 C11.020625 24.195625 11.04125 23.39125 11.0625 22.5625 C11.29633621 20.06645115 11.29633621 20.06645115 10 19 C9.95919217 17.00041636 9.95745644 14.99954746 10 13 C9.01 13 8.02 13 7 13 C7 12.34 7 11.68 7 11 C4.69 11.33 2.38 11.66 0 12 C0 13.65 0 15.3 0 17 C-0.33 17 -0.66 17 -1 17 C-1.18451025 5.47835991 -1.18451025 5.47835991 0 0 Z " fill="#4D4E4C" transform="translate(152,111)"/>
<path d="M0 0 C0.66 0 1.32 0 2 0 C1.855625 1.08539063 1.71125 2.17078125 1.5625 3.2890625 C1.37480044 4.7343491 1.18731162 6.17966307 1 7.625 C0.90460938 8.33785156 0.80921875 9.05070312 0.7109375 9.78515625 C0.18554809 13.87568812 -0.24894488 17.86751492 0 22 C1.37506099 23.87890434 1.37506099 23.87890434 3 25 C3.66 23.68 4.32 22.36 5 21 C5 23.64 5 26.28 5 29 C4.01 28.67 3.02 28.34 2 28 C1.34 29.98 0.68 31.96 0 34 C1.32 34.33 2.64 34.66 4 35 C3.67 35.99 3.34 36.98 3 38 C1.66666667 37.33333333 0.33333333 36.66666667 -1 36 C-1.70125 35.67 -2.4025 35.34 -3.125 35 C-5 34 -5 34 -7 32 C-7.7659871 24.33018112 -7.55367667 17.83399359 -4 11 C-3.61243319 9.59210425 -3.25890283 8.17445733 -2.9375 6.75 C-2 3 -2 3 0 0 Z " fill="#BBBBBB" transform="translate(72,97)"/>
<path d="M0 0 C1.41805831 0.28482368 2.83440379 0.57818144 4.25 0.875 C5.03890625 1.03742188 5.8278125 1.19984375 6.640625 1.3671875 C8.96831144 1.99150075 10.89031952 2.84838542 13 4 C12.28269264 7.23165844 11.18684926 10.18707922 9.9375 13.25 C9.57527344 14.14203125 9.21304688 15.0340625 8.83984375 15.953125 C8.56269531 16.62859375 8.28554687 17.3040625 8 18 C7.34 17.34 6.68 16.68 6 16 C5.278125 15.855625 4.55625 15.71125 3.8125 15.5625 C0.24898105 14.84979621 -2.68896124 13.49321356 -6 12 C-4.68139111 7.38486888 -2.78644563 3.90102388 0 0 Z " fill="#454545" transform="translate(117,117)"/>
<path d="M0 0 C1.17046875 0.03609375 2.3409375 0.0721875 3.546875 0.109375 C4.43890625 0.15578125 5.3309375 0.2021875 6.25 0.25 C6.33153933 1.83246707 6.38943557 3.41616273 6.4375 5 C6.48970703 6.32257812 6.48970703 6.32257812 6.54296875 7.671875 C6.19923684 10.69671583 5.24772541 12.00583602 3.25 14.25 C-4.5 13.375 -4.5 13.375 -6.75 12.25 C-6.75 11.59 -6.75 10.93 -6.75 10.25 C-8.07 10.25 -9.39 10.25 -10.75 10.25 C-11.0633234 6.80344261 -11.23356435 4.91371577 -9.15625 2.0625 C-5.95323037 -0.35016414 -3.96220722 -0.15848829 0 0 Z " fill="#70706F" transform="translate(78.75,52.75)"/>
<path d="M0 0 C1.26066301 3.78198904 0.42292658 5.36363208 -1 9 C-1.33 9.33 -1.66 9.66 -2 10 C-2.04063832 11.66617115 -2.042721 13.33388095 -2 15 C-0.68 15.33 0.64 15.66 2 16 C1.360625 17.03125 0.72125 18.0625 0.0625 19.125 C-2.96465249 25.05094516 -2.81653885 31.46878292 -3 38 C-4.485 38.495 -4.485 38.495 -6 39 C-11.58619218 15.92370611 -11.58619218 15.92370611 -6 6 C-3.375 4.6875 -3.375 4.6875 -1 4 C-0.11306697 1.95894361 -0.11306697 1.95894361 0 0 Z " fill="#363636" transform="translate(67,21)"/>
<path d="M0 0 C0 3 0 3 -2 6.4375 C-6.12482902 14.43849814 -4.11822141 23.73730041 -2.4375 32.2109375 C-1.97144849 35.18201586 -1.92914378 37.99746787 -2 41 C-5.40252177 39.54177639 -7.66505602 37.88719215 -10 35 C-11.34102065 26.18108452 -10.99941061 13.24807134 -6.125 5.4375 C-4.21073238 3.24172243 -2.4443696 1.57138046 0 0 Z " fill="#949493" transform="translate(37,115)"/>
<path d="M0 0 C0.9590625 -0.01675781 1.918125 -0.03351562 2.90625 -0.05078125 C5.5 0.3125 5.5 0.3125 7.33203125 1.6015625 C9.21401281 4.35844518 8.68277117 7.08354261 8.5 10.3125 C7.695625 10.43625 6.89125 10.56 6.0625 10.6875 C5.216875 10.89375 4.37125 11.1 3.5 11.3125 C3.17 11.9725 2.84 12.6325 2.5 13.3125 C1.04257537 13.39346803 -0.41612807 13.45167774 -1.875 13.5 C-2.68710938 13.53480469 -3.49921875 13.56960937 -4.3359375 13.60546875 C-5.05007812 13.50878906 -5.76421875 13.41210938 -6.5 13.3125 C-9.22286806 9.22819792 -8.88524534 7.16659123 -8.5 2.3125 C-5.16602694 0.08985129 -3.90485109 0.01574537 0 0 Z " fill="#646464" transform="translate(100.5,50.6875)"/>
<path d="M0 0 C0.66 0.33 1.32 0.66 2 1 C2.05383848 3.45862401 2.09359038 5.9160755 2.125 8.375 C2.14175781 9.07367188 2.15851563 9.77234375 2.17578125 10.4921875 C2.19344267 12.32897486 2.10303261 14.16601963 2 16 C1.34 16.66 0.68 17.32 0 18 C-0.99 18 -1.98 18 -3 18 C-2.896875 19.134375 -2.79375 20.26875 -2.6875 21.4375 C-2.66306812 26.06326923 -4.37934167 28.8184975 -6.75390625 32.6796875 C-8.71232531 36.32639884 -9.2912627 39.94086818 -10 44 C-10.66 44 -11.32 44 -12 44 C-11.39700836 36.76410027 -9.8849413 30.00629124 -8 23 C-7.34 23 -6.68 23 -6 23 C-6.0825 22.113125 -6.165 21.22625 -6.25 20.3125 C-6.2782485 13.43399136 -3.78613695 5.67920543 0 0 Z " fill="#5C5C5B" transform="translate(63,124)"/>
<path d="M0 0 C0.33 0 0.66 0 1 0 C0.52930987 7.84483545 -2.22714405 14.69985765 -5 22 C-6.86298193 26.9434389 -8.65118985 31.88735342 -10.25390625 36.921875 C-11 39 -11 39 -12.05078125 41.09375 C-13.17816834 43.35780309 -13.58591132 45.51546794 -14 48 C-14.33 46.68 -14.66 45.36 -15 44 C-17.97 44.495 -17.97 44.495 -21 45 C-20.375 43.125 -20.375 43.125 -19 41 C-15.875 39.75 -15.875 39.75 -13 39 C-13 38.34 -13 37.68 -13 37 C-13.99 36.67 -14.98 36.34 -16 36 C-16.44435489 33.03763407 -16.52283909 30.84328885 -14.91015625 28.2421875 C-13.87677653 26.93196069 -12.83572171 25.62776819 -11.7890625 24.328125 C-6.11461476 16.94390916 -2.10607257 9.06614098 0 0 Z " fill="#C4C4C4" transform="translate(113,92)"/>
<path d="M0 0 C1.65 0 3.3 0 5 0 C5 0.66 5 1.32 5 2 C7.97 2.495 7.97 2.495 11 3 C10.01 3.33 9.02 3.66 8 4 C8 4.66 8 5.32 8 6 C10.97 6.495 10.97 6.495 14 7 C13.67 7.66 13.34 8.32 13 9 C10.03 8.67 7.06 8.34 4 8 C4.62841973 11.9714169 4.62841973 11.9714169 7 14 C5.3125 15.125 5.3125 15.125 3 16 C-1.3 14.7 -1.3 14.7 -3 13 C-3.23363881 11.15108054 -3.41303635 9.29511969 -3.5625 7.4375 C-3.64628906 6.42558594 -3.73007813 5.41367188 -3.81640625 4.37109375 C-3.87699219 3.58863281 -3.93757813 2.80617188 -4 2 C-2.68 2 -1.36 2 0 2 C0 1.34 0 0.68 0 0 Z " fill="#777777" transform="translate(82,84)"/>
<path d="M0 0 C0.66 0 1.32 0 2 0 C3.57968184 4.73904553 3.26715535 9.53627203 3.3125 14.5 C3.34150391 15.55832031 3.37050781 16.61664063 3.40039062 17.70703125 C3.40876953 18.72152344 3.41714844 19.73601563 3.42578125 20.78125 C3.44036377 21.71001953 3.45494629 22.63878906 3.4699707 23.59570312 C3 26 3 26 0.97338867 27.82617188 C-0.00343872 28.4072168 -0.00343872 28.4072168 -1 29 C-3.14779981 26.85220019 -2.40102482 21.57157548 -2.51757812 18.546875 C-2.7065998 14.88056774 -2.91643958 13.12534063 -5 10 C-5.125 7.3125 -5.125 7.3125 -5 5 C-3.68 5.99 -2.36 6.98 -1 8 C-0.67 5.36 -0.34 2.72 0 0 Z " fill="#262626" transform="translate(115,33)"/>
<path d="M0 0 C0 0.66 0 1.32 0 2 C-0.69561035 2.07516846 -1.3912207 2.15033691 -2.10791016 2.2277832 C-5.28170642 2.57751937 -8.45323239 2.94483836 -11.625 3.3125 C-12.71941406 3.43044922 -13.81382813 3.54839844 -14.94140625 3.66992188 C-22.86538584 4.58037237 -22.86538584 4.58037237 -30 8 C-31.0409066 9.64142963 -32.04504326 11.30712215 -33 13 C-35.1875 14.3125 -35.1875 14.3125 -37 15 C-36.48676976 10.50923541 -35.28147757 8.12521673 -32 5 C-22.50212432 -1.86480123 -11.1234876 -0.50343037 0 0 Z " fill="#4B4B4B" transform="translate(99,12)"/>
<path d="M0 0 C0.66268329 7.12384541 -1.74611936 13.30879185 -4 20 C-4.99 19.67 -5.98 19.34 -7 19 C-7.77040851 12.93303301 -8.09706112 7.11485027 -8 1 C-4.84227798 -0.73807388 -3.46421706 -1.23722038 0 0 Z " fill="#949594" transform="translate(121,60)"/>
<path d="M0 0 C2.0625 2.75 2.0625 2.75 3 6 C2.4375 8.8125 2.4375 8.8125 1 11 C-1.63168144 12.36121454 -2.79250957 12.06422323 -5.625 11.1875 C-8 10 -8 10 -10 8 C-10 7.01 -10 6.02 -10 5 C-7.69 5 -5.38 5 -3 5 C-3.66 4.34 -4.32 3.68 -5 3 C-7.60280568 3.32041397 -7.60280568 3.32041397 -10 4 C-9.625 2.0625 -9.625 2.0625 -9 0 C-5.74489197 -1.62755402 -3.43821049 -0.90479223 0 0 Z " fill="#272827" transform="translate(109,151)"/>
<path d="M0 0 C2.03168707 -0.1078038 4.06523947 -0.17861945 6.09863281 -0.24707031 C7.25234375 -0.29605469 8.40605469 -0.34503906 9.59472656 -0.39550781 C13.67073105 0.30026875 15.1262962 1.94060735 17.66113281 5.12792969 C17.97363281 7.94042969 17.97363281 7.94042969 17.66113281 10.12792969 C13.78613281 5.37792969 13.78613281 5.37792969 12.66113281 3.12792969 C10.93205542 3.10067628 9.20285105 3.08141982 7.47363281 3.06542969 C6.51070312 3.05382813 5.54777344 3.04222656 4.55566406 3.03027344 C1.79513979 3.12340853 -0.64231262 3.56867641 -3.33886719 4.12792969 C-4.89950823 4.21477387 -6.46332074 4.25823715 -8.02636719 4.25292969 C-8.79335937 4.25550781 -9.56035156 4.25808594 -10.35058594 4.26074219 C-12.33886719 4.12792969 -12.33886719 4.12792969 -14.33886719 3.12792969 C-15.87910715 3.05842427 -17.42221706 3.04340611 -18.96386719 3.06542969 C-19.78113281 3.07445312 -20.59839844 3.08347656 -21.44042969 3.09277344 C-22.06691406 3.104375 -22.69339844 3.11597656 -23.33886719 3.12792969 C-23.00886719 2.46792969 -22.67886719 1.80792969 -22.33886719 1.12792969 C-16.55725232 0.79922874 -10.77561946 0.50223778 -4.99023438 0.24804688 C-3.32647577 0.17267218 -1.66297933 0.09096046 0 0 Z " fill="#838383" transform="translate(92.3388671875,32.8720703125)"/>
<path d="M0 0 C2.97 0 5.94 0 9 0 C9.91892116 3.67568464 9.95904856 5.16380575 9 9 C5.37 9 1.74 9 -2 9 C0 5 0 5 2 4 C1.01 3.67 0.02 3.34 -1 3 C-0.67 2.01 -0.34 1.02 0 0 Z " fill="#3C3B3B" transform="translate(74,53)"/>
<path d="M0 0 C0.33 0 0.66 0 1 0 C2.2982126 5.76081841 3.25706972 11.08739655 3 17 C3.66 17 4.32 17 5 17 C5 17.66 5 18.32 5 19 C6.32 19.33 7.64 19.66 9 20 C8.67 20.99 8.34 21.98 8 23 C6.66666667 22.33333333 5.33333333 21.66666667 4 21 C3.29875 20.67 2.5975 20.34 1.875 20 C0 19 0 19 -2 17 C-2.265625 13.84765625 -2.265625 13.84765625 -2.25 10.0625 C-2.25515625 8.81597656 -2.2603125 7.56945312 -2.265625 6.28515625 C-2 3 -2 3 0 0 Z " fill="#D3D3D2" transform="translate(67,112)"/>
<path d="M0 0 C0.33 0.66 0.66 1.32 1 2 C-3.49334083 6.75010317 -7.8754849 10.85077731 -14.69921875 11.09765625 C-15.68535156 11.08605469 -16.67148438 11.07445313 -17.6875 11.0625 C-18.68136719 11.05347656 -19.67523438 11.04445313 -20.69921875 11.03515625 C-21.83810547 11.01775391 -21.83810547 11.01775391 -23 11 C-23 10.01 -23 9.02 -23 8 C-18.38 7.67 -13.76 7.34 -9 7 C-9 6.34 -9 5.68 -9 5 C-6.03812728 2.82796 -3.49314009 1.16438003 0 0 Z " fill="#282827" transform="translate(106,94)"/>
<path d="M0 0 C1.24674659 3.74023976 0.76679965 6.16600177 0 10 C-0.66 10.66 -1.32 11.32 -2 12 C-2.82925313 15.09558889 -3.4682902 18.21046891 -4.12109375 21.34765625 C-4.41113281 22.22292969 -4.70117188 23.09820312 -5 24 C-5.99 24.33 -6.98 24.66 -8 25 C-8 25.66 -8 26.32 -8 27 C-8.66 27 -9.32 27 -10 27 C-9.67 24.36 -9.34 21.72 -9 19 C-8.34 19 -7.68 19 -7 19 C-6.9175 18.21625 -6.835 17.4325 -6.75 16.625 C-5.52051991 10.68251292 -3.37016322 5.05524483 0 0 Z " fill="#313131" transform="translate(119,147)"/>
<path d="M0 0 C1.32 0 2.64 0 4 0 C3.08358378 2.29104056 2.30881685 3.75057101 0.375 5.3125 C-2.53471211 6.15478509 -4.87490476 5.70396276 -7.828125 5.2265625 C-11.32810072 4.86145712 -14.53651354 5.44336825 -18 6 C-17.125 2.125 -17.125 2.125 -16 1 C-12.7848773 0.93990425 -9.58547814 0.98008297 -6.37109375 1.0390625 C-4.58080145 1.05975952 -2.79009925 1.0334598 -1 1 C-0.67 0.67 -0.34 0.34 0 0 Z " fill="#50504F" transform="translate(92,75)"/>
<path d="M0 0 C0.33 0 0.66 0 1 0 C1.33 1.65 1.66 3.3 2 5 C2.66 4.34 3.32 3.68 4 3 C4 3.66 4 4.32 4 5 C5.0828125 5.3403125 5.0828125 5.3403125 6.1875 5.6875 C9.57685109 7.26919718 11.5424688 9.20114502 14 12 C14.33 12.99 14.66 13.98 15 15 C9.4505077 14.32323265 4.05338899 13.05338899 0 9 C-0.1953125 6.8359375 -0.1953125 6.8359375 -0.125 4.375 C-0.10695313 3.55773437 -0.08890625 2.74046875 -0.0703125 1.8984375 C-0.04710938 1.27195313 -0.02390625 0.64546875 0 0 Z " fill="#686868" transform="translate(102,133)"/>
<path d="M0 0 C0 3.31766523 -0.45250948 4.0703452 -2.3125 6.6875 C-2.74175781 7.31011719 -3.17101562 7.93273437 -3.61328125 8.57421875 C-4.07089844 9.04472656 -4.52851562 9.51523438 -5 10 C-5.99 10 -6.98 10 -8 10 C-8.2475 10.61875 -8.495 11.2375 -8.75 11.875 C-10.30552932 14.51939985 -11.07621471 15.07669938 -14 16 C-16.6912795 16.15467124 -19.29937883 16.09002071 -22 16 C-22.66 14.68 -23.32 13.36 -24 12 C-23.21496094 11.90203125 -22.42992188 11.8040625 -21.62109375 11.703125 C-13.45545103 10.54089855 -7.57621433 9.24393021 -2.0625 2.75 C-1.381875 1.8425 -0.70125 0.935 0 0 Z " fill="#676767" transform="translate(109,93)"/>
<path d="M0 0 C-3.75 2 -3.75 2 -6 2 C-6 3.32 -6 4.64 -6 6 C-7.65 6 -9.3 6 -11 6 C-11.33 7.32 -11.66 8.64 -12 10 C-13.32 9.67 -14.64 9.34 -16 9 C-15.67 8.34 -15.34 7.68 -15 7 C-15.99 7.33 -16.98 7.66 -18 8 C-18.33 6.68 -18.66 5.36 -19 4 C-12.80173182 0.43599579 -7.10763106 -0.22211347 0 0 Z " fill="#2A2A2A" transform="translate(88,15)"/>
<path d="M0 0 C0.33 0.66 0.66 1.32 1 2 C0.69578125 2.75152344 0.3915625 3.50304687 0.078125 4.27734375 C-2.85580371 11.68657676 -0.94281273 20.62165248 0.5625 28.2109375 C1.02855151 31.18201586 1.07085622 33.99746787 1 37 C-0.32 36.34 -1.64 35.68 -3 35 C-3 34.01 -3 33.02 -3 32 C-3.03478535 30.07681617 -3.07000135 28.15364012 -3.10546875 26.23046875 C-3.1334328 23.88281981 -3.16074963 21.53516309 -3.1875 19.1875 C-3.21263672 18.01123047 -3.23777344 16.83496094 -3.26367188 15.62304688 C-3.35456112 4.90417466 -3.35456112 4.90417466 0 0 Z " fill="#5D5C5D" transform="translate(34,119)"/>
<path d="M0 0 C0.33 0 0.66 0 1 0 C1 2.64 1 5.28 1 8 C-0.32 7.67 -1.64 7.34 -3 7 C-3.309375 7.78375 -3.61875 8.5675 -3.9375 9.375 C-5 12 -5 12 -6 14 C-6.99 14 -7.98 14 -9 14 C-9.28875 14.78375 -9.5775 15.5675 -9.875 16.375 C-11 19 -11 19 -13 21 C-15.625 21.125 -15.625 21.125 -18 21 C-17.505 19.515 -17.505 19.515 -17 18 C-17 18.66 -17 19.32 -17 20 C-13.83884224 18.63016497 -13.0072908 18.0109362 -11 15 C-10.61500109 13.34450469 -10.27206865 11.6777567 -10 10 C-10.66 9.67 -11.32 9.34 -12 9 C-10.68 9 -9.36 9 -8 9 C-7.67 8.34 -7.34 7.68 -7 7 C-6.01 6.67 -5.02 6.34 -4 6 C-2.6296945 4.02514795 -1.29327628 2.02613283 0 0 Z " fill="#7C7C7C" transform="translate(112,75)"/>
<path d="M0 0 C6.75 1.625 6.75 1.625 9 5 C8.01 5.495 8.01 5.495 7 6 C6.54625 6.94875 6.0925 7.8975 5.625 8.875 C3.98692683 12.02514072 2.84102481 13.04752616 0 15 C-0.19601608 13.25093341 -0.38147403 11.50068154 -0.5625 9.75 C-0.66691406 8.77546875 -0.77132812 7.8009375 -0.87890625 6.796875 C-0.98974468 4.2368648 -0.77738092 2.41851841 0 0 Z " fill="#545453" transform="translate(103,125)"/>
<path d="M0 0 C-5.75 3 -5.75 3 -8 3 C-8.2475 3.845625 -8.495 4.69125 -8.75 5.5625 C-10.13973627 9.38427474 -11.91120838 12.51868063 -14 16 C-14.66 16 -15.32 16 -16 16 C-17.1577506 12.52674819 -17.06866652 9.63932552 -17 6 C-15.515 6.99 -15.515 6.99 -14 8 C-13.38125 7.05125 -12.7625 6.1025 -12.125 5.125 C-8.85257549 0.31261101 -8.85257549 0.31261101 -6.125 -0.6875 C-3.78011931 -1.0323354 -2.23907765 -0.71970353 0 0 Z " fill="#9F9F9F" transform="translate(82,71)"/>
<path d="M0 0 C0.66 0 1.32 0 2 0 C4.29612756 15.74487472 4.29612756 15.74487472 4 23 C-0.79701585 19.3369599 -0.79701585 19.3369599 -1.31884766 15.89990234 C-1.26734388 13.47106593 -1.0774217 11.10228991 -0.8125 8.6875 C-0.74224609 7.85154297 -0.67199219 7.01558594 -0.59960938 6.15429688 C-0.42358516 4.10068107 -0.21499495 2.04990233 0 0 Z " fill="#414141" transform="translate(72,101)"/>
<path d="M0 0 C0.66 0.33 1.32 0.66 2 1 C1.34 1.61875 0.68 2.2375 0 2.875 C-2.79514062 7.24240721 -2.35288244 10.95182061 -2 16 C-2.61875 16.12375 -3.2375 16.2475 -3.875 16.375 C-6.19120832 16.87197356 -6.19120832 16.87197356 -8 19 C-8.99 18.01 -9.98 17.02 -11 16 C-10.5565625 15.44570312 -10.113125 14.89140625 -9.65625 14.3203125 C-7.40076645 11.16050771 -5.90785353 7.7560682 -4.28125 4.2421875 C-3 2 -3 2 0 0 Z " fill="#919191" transform="translate(77,72)"/>
<path d="M0 0 C0.33 0 0.66 0 1 0 C1.77916092 5.02125926 2.13016601 8.97703996 1 14 C-0.32 14 -1.64 14 -3 14 C-3.474375 14.825 -3.94875 15.65 -4.4375 16.5 C-5.2109375 17.7375 -5.2109375 17.7375 -6 19 C-8.6875 19.3125 -8.6875 19.3125 -11 19 C-10.67 17.68 -10.34 16.36 -10 15 C-9.01 15 -8.02 15 -7 15 C-6.690625 14.21625 -6.38125 13.4325 -6.0625 12.625 C-5 10 -5 10 -4 8 C-2.68 8.33 -1.36 8.66 0 9 C0 6.03 0 3.06 0 0 Z " fill="#5D5D5D" transform="translate(113,74)"/>
<path d="M0 0 C0.33 0 0.66 0 1 0 C1.16159893 9.85753464 0.96864055 18.85487178 -3 28 C-3.33 28 -3.66 28 -4 28 C-4.42029825 18.62890566 -3.52536767 10.05468614 -1 1 C-0.67 0.67 -0.34 0.34 0 0 Z " fill="#9D9D9D" transform="translate(100,132)"/>
<path d="M0 0 C0.33 0 0.66 0 1 0 C1 6.93 1 13.86 1 21 C0.34 21 -0.32 21 -1 21 C-0.67 18.69 -0.34 16.38 0 14 C-0.66 14 -1.32 14 -2 14 C-2 15.32 -2 16.64 -2 18 C-2.66 18 -3.32 18 -4 18 C-5.4783226 15.04335481 -5.06032783 12.25770263 -5 9 C-4.0409375 8.7215625 -4.0409375 8.7215625 -3.0625 8.4375 C-0.57873787 7.05753944 -0.57873787 7.05753944 -0.25 3.375 C-0.1675 2.26125 -0.085 1.1475 0 0 Z " fill="#969696" transform="translate(64,52)"/>
<path d="M0 0 C1.50433594 0.01353516 1.50433594 0.01353516 3.0390625 0.02734375 C3.80992188 0.03894531 4.58078125 0.05054688 5.375 0.0625 C6.035 1.3825 6.695 2.7025 7.375 4.0625 C-0.545 4.5575 -0.545 4.5575 -8.625 5.0625 C-8.295 3.7425 -7.965 2.4225 -7.625 1.0625 C-4.98041621 -0.25979189 -2.94738699 -0.03427194 0 0 Z " fill="#2A2B2B" transform="translate(100.625,50.9375)"/>
<path d="M0 0 C0.99 0 1.98 0 3 0 C3.06058594 0.83144531 3.12117188 1.66289063 3.18359375 2.51953125 C3.26738281 3.60621094 3.35117188 4.69289063 3.4375 5.8125 C3.55931641 7.43091797 3.55931641 7.43091797 3.68359375 9.08203125 C3.90212461 12.05989905 3.90212461 12.05989905 5 15 C1.17679443 16.42258812 -1.91281305 17.24042276 -6 17 C-5.360625 16.71125 -4.72125 16.4225 -4.0625 16.125 C-1.84793921 15.17176549 -1.84793921 15.17176549 -1 13 C-0.95466312 10.97967529 -0.96146906 8.95796597 -1 6.9375 C-1.03764677 4.95869142 -1.04662427 2.97861741 -1 1 C-0.67 0.67 -0.34 0.34 0 0 Z " fill="#B9B9B9" transform="translate(87,58)"/>
<path d="M0 0 C2.08901197 3.39464446 2.34361606 6.04841529 2 10 C1.34 10.66 0.68 11.32 0 12 C-0.99 12 -1.98 12 -3 12 C-2.938125 13.216875 -2.87625 14.43375 -2.8125 15.6875 C-2.79177176 19.57750046 -3.62724186 21.83632249 -6 25 C-7.26395496 21.20813511 -6.4733635 20.64463604 -5 17 C-4.24204952 13.68333079 -3.6108355 10.34659876 -3 7 C-2.01 6.67 -1.02 6.34 0 6 C0 4.02 0 2.04 0 0 Z " fill="#ACACAB" transform="translate(63,130)"/>
<path d="M0 0 C0.66 0 1.32 0 2 0 C1.67 2.31 1.34 4.62 1 7 C1.66 7 2.32 7 3 7 C3.33 6.34 3.66 5.68 4 5 C4 6.65 4 8.3 4 10 C4.66 10 5.32 10 6 10 C6.33 9.01 6.66 8.02 7 7 C7.99 7.33 8.98 7.66 10 8 C8.02 10.97 8.02 10.97 6 14 C5.34 13.67 4.68 13.34 4 13 C3.01 14.485 3.01 14.485 2 16 C0.68 12.04 -0.64 8.08 -2 4 C-1.34 4 -0.68 4 0 4 C0 2.68 0 1.36 0 0 Z " fill="#BEBEBD" transform="translate(62,66)"/>
<path d="M0 0 C2.36810318 0.94724127 3.75207953 1.65291134 5.25 3.75 C6.19251213 6.57753638 6.1345485 9.03993304 6 12 C5.01 12 4.02 12 3 12 C2.01 9.69 1.02 7.38 0 5 C-1.32 5 -2.64 5 -4 5 C-4 4.01 -4 3.02 -4 2 C-3.01 1.67 -2.02 1.34 -1 1 C-0.67 0.67 -0.34 0.34 0 0 Z " fill="#303030" transform="translate(111,19)"/>
<path d="M0 0 C3.465 1.485 3.465 1.485 7 3 C7 5.64 7 8.28 7 11 C4 12 4 12 1 11 C0.67 7.37 0.34 3.74 0 0 Z " fill="#929291" transform="translate(78,86)"/>
<path d="M0 0 C0.33 0 0.66 0 1 0 C1.33 3.63 1.66 7.26 2 11 C3.32 11.33 4.64 11.66 6 12 C5.855625 12.66 5.71125 13.32 5.5625 14 C4.87700084 17.65599551 4.43824485 21.30622195 4 25 C3.34 24.67 2.68 24.34 2 24 C-0.15897382 16.15039764 -0.25786805 8.07986556 0 0 Z " fill="#818180" transform="translate(32,126)"/>
<path d="M0 0 C0.88365234 0.00451172 1.76730469 0.00902344 2.67773438 0.01367188 C4.84768559 0.02540134 7.01760172 0.04333505 9.1875 0.0625 C8.1975 1.5475 8.1975 1.5475 7.1875 3.0625 C5.30810547 3.3112793 5.30810547 3.3112793 3.0546875 3.13671875 C1.84619141 3.05454102 1.84619141 3.05454102 0.61328125 2.97070312 C-0.22847656 2.89787109 -1.07023437 2.82503906 -1.9375 2.75 C-2.78699219 2.68876953 -3.63648437 2.62753906 -4.51171875 2.56445312 C-6.61303665 2.41098609 -8.71295124 2.23852278 -10.8125 2.0625 C-10.8125 2.7225 -10.8125 3.3825 -10.8125 4.0625 C-12.1325 3.7325 -13.4525 3.4025 -14.8125 3.0625 C-14.8125 2.4025 -14.8125 1.7425 -14.8125 1.0625 C-9.89747242 -0.22985715 -5.03959898 -0.04885517 0 0 Z " fill="#575656" transform="translate(92.8125,81.9375)"/>
<path d="M0 0 C0.99 0.33 1.98 0.66 3 1 C2.01 1.495 2.01 1.495 1 2 C0.566875 2.9590625 0.566875 2.9590625 0.125 3.9375 C-1.24816013 6.45496024 -2.42382037 6.87292141 -5 8 C-5.66 8.66 -6.32 9.32 -7 10 C-7 7.36 -7 4.72 -7 2 C-10.63 2 -14.26 2 -18 2 C-18 1.67 -18 1.34 -18 1 C-12.33333333 1 -6.66666667 1 -1 1 C-0.67 0.67 -0.34 0.34 0 0 Z " fill="#898989" transform="translate(92,51)"/>
<path d="M0 0 C0 0.66 0 1.32 0 2 C0.639375 2.268125 1.27875 2.53625 1.9375 2.8125 C4 4 4 4 5 7 C4.01 7.66 3.02 8.32 2 9 C1.67 8.34 1.34 7.68 1 7 C1.33 6.01 1.66 5.02 2 4 C0.68 4.33 -0.64 4.66 -2 5 C-2.33 4.34 -2.66 3.68 -3 3 C-5.49361571 4.20381448 -7.68143083 5.45428722 -10 7 C-9.6875 4.625 -9.6875 4.625 -9 2 C-5.5647952 -0.29013653 -4.014669 -0.17842973 0 0 Z " fill="#C5C5C4" transform="translate(77,35)"/>
<path d="M0 0 C-0.33 4.62 -0.66 9.24 -1 14 C-2.98 14 -4.96 14 -7 14 C-6.67515625 12.96939453 -6.67515625 12.96939453 -6.34375 11.91796875 C-6.0653125 11.01691406 -5.786875 10.11585938 -5.5 9.1875 C-5.2215625 8.29417969 -4.943125 7.40085938 -4.65625 6.48046875 C-3.87211649 3.94426605 -3.87211649 3.94426605 -4 1 C-1 0 -1 0 0 0 Z " fill="#888887" transform="translate(111,161)"/>
<path d="M0 0 C0.33 0 0.66 0 1 0 C0.46048934 6.68993219 -0.88706171 12.63460728 -3 19 C-3.66 19 -4.32 19 -5 19 C-5 16.36 -5 13.72 -5 11 C-4.34 11 -3.68 11 -3 11 C-3.20625 10.236875 -3.4125 9.47375 -3.625 8.6875 C-4.16693713 4.80361721 -2.11879348 3.17819022 0 0 Z " fill="#979797" transform="translate(120,61)"/>
<path d="M0 0 C2.475 0.495 2.475 0.495 5 1 C4.88658509 3.48020497 4.75985314 5.95844969 4.625 8.4375 C4.5940625 9.14455078 4.563125 9.85160156 4.53125 10.58007812 C4.42719371 12.39239188 4.22080108 14.19817988 4 16 C3.34 16.33 2.68 16.66 2 17 C1.80482446 15.06325815 1.61912127 13.12555991 1.4375 11.1875 C1.33308594 10.10855469 1.22867188 9.02960938 1.12109375 7.91796875 C1 5 1 5 2 2 C1.34 2 0.68 2 0 2 C0 1.34 0 0.68 0 0 Z " fill="#3D3D3C" transform="translate(132,105)"/>
<path d="M0 0 C0 5.064542 -3.53120867 8.51781565 -7 12 C-9.46124023 13.25437726 -11.2299226 13.60427466 -14 14 C-14.33 13.01 -14.66 12.02 -15 11 C-13.88625 10.566875 -12.7725 10.13375 -11.625 9.6875 C-7.82487666 8.30088881 -7.82487666 8.30088881 -6 5 C-5.01 5 -4.02 5 -3 5 C-2.690625 4.360625 -2.38125 3.72125 -2.0625 3.0625 C-1 1 -1 1 0 0 Z " fill="#828282" transform="translate(107,98)"/>
<path d="M0 0 C1.27115705 3.81347115 0.54905091 5.35973036 -1 9 C-1.99 9.66 -2.98 10.32 -4 11 C-4.33 11.99 -4.66 12.98 -5 14 C-5.99 14 -6.98 14 -8 14 C-7.47731534 11.23723823 -6.89130413 8.6739124 -6 6 C-5.175 5.690625 -4.35 5.38125 -3.5 5.0625 C-2.675 4.711875 -1.85 4.36125 -1 4 C-0.11306697 1.95894361 -0.11306697 1.95894361 0 0 Z " fill="#434343" transform="translate(67,21)"/>
<path d="M0 0 C-0.99 0.495 -0.99 0.495 -2 1 C-2 1.66 -2 2.32 -2 3 C-1.34 3.66 -0.68 4.32 0 5 C-0.99 5.99 -1.98 6.98 -3 8 C-5.15473199 6.4198632 -7.10646634 4.89353366 -9 3 C-10.31747324 2.30251417 -11.64914193 1.63040043 -13 1 C-11.39796533 0.63631108 -9.79325797 0.28438048 -8.1875 -0.0625 C-7.29417969 -0.25972656 -6.40085937 -0.45695313 -5.48046875 -0.66015625 C-3 -1 -3 -1 0 0 Z " fill="#323232" transform="translate(102,14)"/>
<path d="M0 0 C0.66 0.33 1.32 0.66 2 1 C1.3503125 2.85625 1.3503125 2.85625 0.6875 4.75 C-1.21052896 10.41697218 -2.61390848 16.19021215 -4 22 C-4.66 22 -5.32 22 -6 22 C-5.40477711 14.85732526 -4.31071868 7.81053926 -2 1 C-1.34 0.67 -0.68 0.34 0 0 Z " fill="#676667" transform="translate(57,146)"/>
<path d="M0 0 C3.39529367 3.96117595 6.13200883 7.22781456 5.875 12.625 C4.81035023 15.51476367 3.48071603 16.27645031 1 18 C1.01740234 16.80503906 1.01740234 16.80503906 1.03515625 15.5859375 C1.11851557 7.74521011 1.11851557 7.74521011 0 0 Z " fill="#A8A8A7" transform="translate(78,130)"/>
<path d="M0 0 C0.66 0 1.32 0 2 0 C4.69707634 6.55004254 6.53699151 11.88486245 6 19 C5.67 19 5.34 19 5 19 C4.7834375 17.6078125 4.7834375 17.6078125 4.5625 16.1875 C4.07899889 12.99274889 4.07899889 12.99274889 3 10 C2.34 9.67 1.68 9.34 1 9 C1 8.34 1 7.68 1 7 C0.01 6.67 -0.98 6.34 -2 6 C-1.34 4.02 -0.68 2.04 0 0 Z " fill="#DCDCDB" transform="translate(74,125)"/>
<path d="M0 0 C0.71027344 0.08378906 1.42054687 0.16757813 2.15234375 0.25390625 C3.53099609 0.40666016 3.53099609 0.40666016 4.9375 0.5625 C5.85402344 0.66691406 6.77054687 0.77132812 7.71484375 0.87890625 C8.84599609 0.93884766 8.84599609 0.93884766 10 1 C10.33 0.67 10.66 0.34 11 0 C13.67058851 -0.14115161 16.32432238 -0.04247107 19 0 C19.33 0.66 19.66 1.32 20 2 C16.85069107 3.04976964 14.61185544 3.10131595 11.3125 3.0625 C10.31863281 3.05347656 9.32476562 3.04445313 8.30078125 3.03515625 C7.16189453 3.01775391 7.16189453 3.01775391 6 3 C5.67 3.66 5.34 4.32 5 5 C2.5 3.625 2.5 3.625 0 2 C0 1.34 0 0.68 0 0 Z " fill="#404040" transform="translate(77,99)"/>
<path d="M0 0 C2 2 2 2 2.6875 4.0625 C3.96407698 6.43177141 3.96407698 6.43177141 7.625 6.75 C8.73875 6.8325 9.8525 6.915 11 7 C10.67 7.66 10.34 8.32 10 9 C-2.0933028 8.38580424 -2.0933028 8.38580424 -6 5 C-6.33 4.01 -6.66 3.02 -7 2 C-4.525 2.99 -4.525 2.99 -2 4 C-1.34 2.68 -0.68 1.36 0 0 Z " fill="#676766" transform="translate(77,92)"/>
<path d="M0 0 C0.99 0.66 1.98 1.32 3 2 C3 2.66 3 3.32 3 4 C-1.29 4 -5.58 4 -10 4 C-10 3.01 -10 2.02 -10 1 C-6.87293041 -0.5635348 -3.42017557 -0.39958487 0 0 Z " fill="#464645" transform="translate(104,57)"/>
<path d="M0 0 C0 3 0 3 -1.9375 5 C-2.618125 5.66 -3.29875 6.32 -4 7 C-5.23759823 10.71279469 -5.35608897 14.31306346 -5.5625 18.1875 C-5.60568359 18.93708984 -5.64886719 19.68667969 -5.69335938 20.45898438 C-5.79922685 22.30578375 -5.9000976 24.15286834 -6 26 C-6.33 26 -6.66 26 -7 26 C-7.06058594 25.15695313 -7.12117188 24.31390625 -7.18359375 23.4453125 C-7.26738281 22.34960938 -7.35117187 21.25390625 -7.4375 20.125 C-7.51871094 19.03445312 -7.59992187 17.94390625 -7.68359375 16.8203125 C-7.83001703 14.05271029 -7.83001703 14.05271029 -9 12 C-7.25165244 6.75495732 -4.63009345 3.08672897 0 0 Z " fill="#818281" transform="translate(37,115)"/>
<path d="M0 0 C0.33 0 0.66 0 1 0 C0.938125 1.11375 0.87625 2.2275 0.8125 3.375 C0.874375 4.57125 0.93625 5.7675 1 7 C1.99 7.66 2.98 8.32 4 9 C5.1875 12.625 5.1875 12.625 6 16 C3.03 15.505 3.03 15.505 0 15 C0.2784375 14.0409375 0.2784375 14.0409375 0.5625 13.0625 C0.706875 12.381875 0.85125 11.70125 1 11 C0.67 10.67 0.34 10.34 0 10 C-1.49106457 7.01787087 -1.11941467 4.28390342 -1 1 C-0.67 0.67 -0.34 0.34 0 0 Z " fill="#353535" transform="translate(134,145)"/>
<path d="M0 0 C1.28735597 3.8620679 0.41926846 4.98906468 -1.25 8.625 C-1.68828125 9.60726562 -2.1265625 10.58953125 -2.578125 11.6015625 C-4 14 -4 14 -7 15 C-6.48474397 9.71862571 -4.74522883 6.42778844 -2 2 C-1.34 2 -0.68 2 0 2 C0 1.34 0 0.68 0 0 Z " fill="#81817F" transform="translate(49,122)"/>
<path d="M0 0 C1.53690745 2.41040161 2.09752136 3.50082285 1.5390625 6.359375 C1.23742187 7.14828125 0.93578125 7.9371875 0.625 8.75 C0.18027344 9.94882813 0.18027344 9.94882813 -0.2734375 11.171875 C-0.51320313 11.77515625 -0.75296875 12.3784375 -1 13 C-1.99 12.67 -2.98 12.34 -4 12 C-3.33501617 7.61110675 -1.81242323 4.0188515 0 0 Z " fill="#8F8F8F" transform="translate(112,88)"/>
<path d="M0 0 C2.125 2.125 2.125 2.125 4 5 C3.5 8.25 3.5 8.25 2 11 C0.125 12 0.125 12 -2 12 C-4.25 11.0625 -4.25 11.0625 -6 10 C-4.02 10 -2.04 10 0 10 C-0.66 7.03 -1.32 4.06 -2 1 C-1.34 0.67 -0.68 0.34 0 0 Z " fill="#353535" transform="translate(108,151)"/>
<path d="M0 0 C0.28875 0.639375 0.5775 1.27875 0.875 1.9375 C1.82823451 4.15206079 1.82823451 4.15206079 4 5 C4 5.66 4 6.32 4 7 C-1.75 10 -1.75 10 -4 10 C-2.25 2.25 -2.25 2.25 0 0 Z " fill="#D8D8D8" transform="translate(96,124)"/>
<path d="M0 0 C0.33 0 0.66 0 1 0 C1.33 1.65 1.66 3.3 2 5 C2.66 4.34 3.32 3.68 4 3 C4 3.66 4 4.32 4 5 C6.475 5.99 6.475 5.99 9 7 C4.25 11 4.25 11 2 11 C0 9 0 9 -0.1953125 6.8359375 C-0.17210938 6.02382812 -0.14890625 5.21171875 -0.125 4.375 C-0.10695313 3.55773437 -0.08890625 2.74046875 -0.0703125 1.8984375 C-0.04710938 1.27195313 -0.02390625 0.64546875 0 0 Z " fill="#626262" transform="translate(102,133)"/>
<path d="M0 0 C2.01822917 0.29296875 4.03645833 0.5859375 6.0546875 0.87890625 C8.08140667 1.1684297 8.08140667 1.1684297 10 0 C11.54023996 -0.06950541 13.08334988 -0.08452357 14.625 -0.0625 C15.85089844 -0.04896484 15.85089844 -0.04896484 17.1015625 -0.03515625 C18.04128906 -0.01775391 18.04128906 -0.01775391 19 0 C19.33 0.66 19.66 1.32 20 2 C13.30386804 2.797837 6.74233419 3.12910853 0 3 C0 2.01 0 1.02 0 0 Z " fill="#8A8A8A" transform="translate(82,79)"/>
<path d="M0 0 C1.32 0 2.64 0 4 0 C3.0518738 2.37031549 2.31103322 3.76672508 0.25 5.3125 C-2.75172093 6.22969251 -4.97769126 5.68688835 -8 5 C-7.34 3.68 -6.68 2.36 -6 1 C-4.7934375 1.0309375 -4.7934375 1.0309375 -3.5625 1.0625 C-1.06645115 1.29633621 -1.06645115 1.29633621 0 0 Z " fill="#555655" transform="translate(92,75)"/>
<path d="M0 0 C0.33 0 0.66 0 1 0 C1.07347656 1.01320312 1.07347656 1.01320312 1.1484375 2.046875 C1.22320312 2.93890625 1.29796875 3.8309375 1.375 4.75 C1.44460937 5.63171875 1.51421875 6.5134375 1.5859375 7.421875 C1.99850055 9.99066382 2.71160957 11.75841015 4 14 C3.01 14.66 2.02 15.32 1 16 C0.67 16.99 0.34 17.98 0 19 C-0.66 19 -1.32 19 -2 19 C-1.34 12.73 -0.68 6.46 0 0 Z " fill="#818281" transform="translate(101,131)"/>
<path d="M0 0 C2.31 0 4.62 0 7 0 C5.35 3.3 3.7 6.6 2 10 C1.67 10 1.34 10 1 10 C1.020625 9.278125 1.04125 8.55625 1.0625 7.8125 C1.00179441 5.08074862 0.60741465 2.65743909 0 0 Z " fill="#57555A" transform="translate(162,126)"/>
<path d="M0 0 C0.95261487 4.76307437 1.08333357 9.1666528 1 14 C0.34 14 -0.32 14 -1 14 C-3.28571429 5.57142857 -3.28571429 5.57142857 -3 1 C-1 0 -1 0 0 0 Z " fill="#252525" transform="translate(62,46)"/>
<path d="M0 0 C2.97 0 5.94 0 9 0 C9 1.32 9 2.64 9 4 C2.375 4.125 2.375 4.125 -1 3 C-0.67 2.01 -0.34 1.02 0 0 Z " fill="#2E2E2D" transform="translate(74,53)"/>
<path d="M0 0 C0.33 0.66 0.66 1.32 1 2 C-3.75 6.875 -3.75 6.875 -6 8 C-6.99 7.67 -7.98 7.34 -9 7 C-9 6.34 -9 5.68 -9 5 C-6.03812728 2.82796 -3.49314009 1.16438003 0 0 Z " fill="#323232" transform="translate(106,94)"/>
<path d="M0 0 C0.99 0.33 1.98 0.66 3 1 C2.34 1 1.68 1 1 1 C0.71125 1.5775 0.4225 2.155 0.125 2.75 C-0.24625 3.4925 -0.6175 4.235 -1 5 C-1.28875 5.70125 -1.5775 6.4025 -1.875 7.125 C-3.25218936 9.42031559 -4.55198504 10.02079402 -7 11 C-6.49697411 6.59852343 -4.97554199 4.24604581 -2 1 C-1.34 0.67 -0.68 0.34 0 0 Z " fill="#4E4E4E" transform="translate(69,16)"/>
<path d="M0 0 C1.61648437 0.04060547 1.61648437 0.04060547 3.265625 0.08203125 C4.08546875 0.11683594 4.9053125 0.15164063 5.75 0.1875 C5.75 0.8475 5.75 1.5075 5.75 2.1875 C0.36509359 3.10407981 -4.79230189 3.29888159 -10.25 3.1875 C-6.86416198 0.05642164 -4.53890538 -0.14800778 0 0 Z " fill="#454545" transform="translate(93.25,11.8125)"/>
<path d="M0 0 C1.98 0.66 3.96 1.32 6 2 C4.515 4.475 4.515 4.475 3 7 C1.02 6.34 -0.96 5.68 -3 5 C-3 3 -3 3 -1.5 1.375 C-1.005 0.92125 -0.51 0.4675 0 0 Z " fill="#6C6C6B" transform="translate(72,89)"/>
<path d="M0 0 C0.33 0.99 0.66 1.98 1 3 C3.64 3 6.28 3 9 3 C9 3.33 9 3.66 9 4 C6.36 4 3.72 4 1 4 C1.66 8.62 2.32 13.24 3 18 C2.34 18 1.68 18 1 18 C0.04738513 13.23692563 -0.08333357 8.8333472 0 4 C-0.99 3.67 -1.98 3.34 -3 3 C-2.01 3 -1.02 3 0 3 C0 2.01 0 1.02 0 0 Z " fill="#545455" transform="translate(124,151)"/>
<path d="M0 0 C0.33 0 0.66 0 1 0 C1 6.6 1 13.2 1 20 C-2.01509833 15.47735251 -2.55185437 10.15504619 -1.61328125 4.7890625 C-1.14746058 3.17025306 -0.58393141 1.58004968 0 0 Z " fill="#A9A9A9" transform="translate(71,103)"/>
<path d="M0 0 C0.33 0.99 0.66 1.98 1 3 C-0.65 3 -2.3 3 -4 3 C-4 3.66 -4 4.32 -4 5 C-4.99 5.33 -5.98 5.66 -7 6 C-7.33 4.35 -7.66 2.7 -8 1 C-5.29120665 -0.35439668 -2.99066732 -0.06501451 0 0 Z " fill="#6D6D6C" transform="translate(82,80)"/>
<path d="M0 0 C3.36591866 1.44253657 5.51047079 3.33264727 8 6 C7.67 6.99 7.34 7.98 7 9 C4.03 8.505 4.03 8.505 1 8 C1.33 6.35 1.66 4.7 2 3 C1.34 2.67 0.68 2.34 0 2 C0 1.34 0 0.68 0 0 Z " fill="#515151" transform="translate(97,71)"/>
<path d="M0 0 C0.66 0.33 1.32 0.66 2 1 C0.53191489 6.62765957 0.53191489 6.62765957 -1.875 8.3125 C-3.90562027 8.96946538 -5.91295522 9.55277612 -8 10 C-8 9.01 -8 8.02 -8 7 C-7.236875 6.95875 -6.47375 6.9175 -5.6875 6.875 C-2.67594887 6.22176391 -2.67594887 6.22176391 -1.1875 2.9375 C-0.795625 1.968125 -0.40375 0.99875 0 0 Z " fill="#474747" transform="translate(110,86)"/>
<path d="M0 0 C3.3 0.99 6.6 1.98 10 3 C10 3.66 10 4.32 10 5 C7.36 5.33 4.72 5.66 2 6 C2 4.68 2 3.36 2 2 C1.34 2 0.68 2 0 2 C0 1.34 0 0.68 0 0 Z " fill="#BEBEBE" transform="translate(73,65)"/>
<path d="M0 0 C0 2.31 0 4.62 0 7 C-0.66 7 -1.32 7 -2 7 C-3 6 -4 5 -5 4 C-7.09989652 2.82425289 -7.09989652 2.82425289 -9 2 C-6.98634914 -0.01365086 -2.76905449 0 0 0 Z " fill="#717170" transform="translate(109,54)"/>
<path d="M0 0 C2.125 0.9375 2.125 0.9375 4 2 C4 3.65 4 5.3 4 7 C1.83125748 6.49396008 0.00032373 6.00016187 -2 5 C-2 3.68 -2 2.36 -2 1 C-1.34 0.67 -0.68 0.34 0 0 Z " fill="#8D888B" transform="translate(38,154)"/>
<path d="M0 0 C-0.33 2.97 -0.66 5.94 -1 9 C-1.33 7.68 -1.66 6.36 -2 5 C-3.98 5.33 -5.96 5.66 -8 6 C-6.98565881 3.46414701 -6.34981128 2.21863205 -4 0.75 C-2 0 -2 0 0 0 Z " fill="#CBCBCB" transform="translate(100,131)"/>
<path d="M0 0 C0.33 0.66 0.66 1.32 1 2 C-0.328125 4.53125 -0.328125 4.53125 -2.25 7.5 C-2.87390625 8.4796875 -3.4978125 9.459375 -4.140625 10.46875 C-6 13 -6 13 -9 15 C-8.67 13.35 -8.34 11.7 -8 10 C-7.34 10 -6.68 10 -6 10 C-5.7525 9.278125 -5.505 8.55625 -5.25 7.8125 C-3.89016326 4.75286734 -2.17082246 2.5326262 0 0 Z " fill="#898A8A" transform="translate(108,104)"/>
<path d="M0 0 C1.32 0 2.64 0 4 0 C3.67 2.31 3.34 4.62 3 7 C0.69 6.67 -1.62 6.34 -4 6 C-4 5.67 -4 5.34 -4 5 C-2.35 4.67 -0.7 4.34 1 4 C0.01 3.34 -0.98 2.68 -2 2 C-1.34 1.34 -0.68 0.68 0 0 Z " fill="#E5DFE4" transform="translate(63,166)"/>
<path d="M0 0 C0.33 0 0.66 0 1 0 C1.33 5.94 1.66 11.88 2 18 C0.68 16.35 -0.64 14.7 -2 13 C-1.67 12.67 -1.34 12.34 -1 12 C-0.76572222 9.98405418 -0.58663876 7.961526 -0.4375 5.9375 C-0.35371094 4.83277344 -0.26992187 3.72804688 -0.18359375 2.58984375 C-0.12300781 1.73519531 -0.06242187 0.88054687 0 0 Z " fill="#696969" transform="translate(74,106)"/>
<path d="M0 0 C0.66 0 1.32 0 2 0 C0.45730076 4.72065967 -1.07794619 9.41664092 -3 14 C-4.04728614 10.85814159 -3.99290464 10.05937877 -3.1875 7 C-3.01605469 6.319375 -2.84460938 5.63875 -2.66796875 4.9375 C-2 3 -2 3 0 0 Z " fill="#D2D2D1" transform="translate(72,97)"/>
<path d="M0 0 C0.99 0.33 1.98 0.66 3 1 C2.67 2.32 2.34 3.64 2 5 C2.99 5.33 3.98 5.66 5 6 C3.68 6.33 2.36 6.66 1 7 C1 6.34 1 5.68 1 5 C0.34 5 -0.32 5 -1 5 C-1.33 5.66 -1.66 6.32 -2 7 C-2.33 6.34 -2.66 5.68 -3 5 C-1.5625 2.375 -1.5625 2.375 0 0 Z " fill="#696969" transform="translate(103,145)"/>
<path d="M0 0 C0.91007812 0.00902344 1.82015625 0.01804687 2.7578125 0.02734375 C3.45648438 0.03894531 4.15515625 0.05054687 4.875 0.0625 C4.545 0.7225 4.215 1.3825 3.875 2.0625 C1.87890625 2.546875 1.87890625 2.546875 -0.5625 2.8125 C-1.76712891 2.95945312 -1.76712891 2.95945312 -2.99609375 3.109375 C-5.125 3.0625 -5.125 3.0625 -7.125 1.0625 C-4.60024538 -0.19987731 -2.81299534 -0.03606404 0 0 Z " fill="#B1B0B0" transform="translate(92.125,83.9375)"/>
<path d="M0 0 C-1.03060547 0.48919922 -1.03060547 0.48919922 -2.08203125 0.98828125 C-3.43361328 1.64376953 -3.43361328 1.64376953 -4.8125 2.3125 C-5.70582031 2.74175781 -6.59914063 3.17101562 -7.51953125 3.61328125 C-9.78931933 4.88221789 -11.29248171 6.06556898 -13 8 C-11.82596494 4.65851561 -10.84565166 2.18896282 -8 0 C-4.94182506 -1.18380965 -3.10015009 -0.85432111 0 0 Z " fill="#A7A7A7" transform="translate(82,71)"/>
<path d="M0 0 C0.99 0 1.98 0 3 0 C3.06058594 0.83144531 3.12117188 1.66289063 3.18359375 2.51953125 C3.26738281 3.60621094 3.35117188 4.69289063 3.4375 5.8125 C3.55931641 7.43091797 3.55931641 7.43091797 3.68359375 9.08203125 C3.90212461 12.05989905 3.90212461 12.05989905 5 15 C3.35 15.33 1.7 15.66 0 16 C0.33 15.34 0.66 14.68 1 14 C1.22950319 11.795636 1.41075933 9.58607827 1.5625 7.375 C1.64628906 6.18648438 1.73007813 4.99796875 1.81640625 3.7734375 C1.87699219 2.85820313 1.93757813 1.94296875 2 1 C1.34 0.67 0.68 0.34 0 0 Z " fill="#A8A8A7" transform="translate(87,58)"/>
<path d="M0 0 C0.33 0 0.66 0 1 0 C1 2.97 1 5.94 1 9 C1.66 9 2.32 9 3 9 C3.33 10.32 3.66 11.64 4 13 C3.01 13.66 2.02 14.32 1 15 C0 14 0 14 -0.09765625 10.83984375 C-0.08025391 8.90818359 -0.08025391 8.90818359 -0.0625 6.9375 C-0.05347656 5.64714844 -0.04445313 4.35679688 -0.03515625 3.02734375 C-0.02355469 2.02832031 -0.01195313 1.02929688 0 0 Z " fill="#474747" transform="translate(113,47)"/>
<path d="M0 0 C0.66 0.66 1.32 1.32 2 2 C2.66 1.34 3.32 0.68 4 0 C4 1.98 4 3.96 4 6 C3.01 6 2.02 6 1 6 C1 6.66 1 7.32 1 8 C0.34 8 -0.32 8 -1 8 C-0.67 5.36 -0.34 2.72 0 0 Z " fill="#393939" transform="translate(110,166)"/>
<path d="M0 0 C0.33 0 0.66 0 1 0 C1.05447047 1.41623216 1.09300508 2.83308191 1.125 4.25 C1.14820313 5.03890625 1.17140625 5.8278125 1.1953125 6.640625 C0.9828378 9.20731941 0.28654105 10.7916067 -1 13 C-1.66 12.67 -2.32 12.34 -3 12 C-2.01 8.04 -1.02 4.08 0 0 Z " fill="#A7A4A6" transform="translate(55,156)"/>
<path d="M0 0 C1.4540625 0.0309375 1.4540625 0.0309375 2.9375 0.0625 C1.96183888 1.23209987 0.981875 2.39811177 0 3.5625 C-0.54527344 4.2121875 -1.09054688 4.861875 -1.65234375 5.53125 C-2.11769531 6.0365625 -2.58304688 6.541875 -3.0625 7.0625 C-3.3925 7.0625 -3.7225 7.0625 -4.0625 7.0625 C-4.10504356 5.06295254 -4.10330783 3.06208364 -4.0625 1.0625 C-3.0625 0.0625 -3.0625 0.0625 0 0 Z " fill="#A5A4A4" transform="translate(37.0625,121.9375)"/>
<path d="M0 0 C1.74271938 2.297221 3.39911152 4.59866729 5 7 C3.3125 8.125 3.3125 8.125 1 9 C-1.75 8.125 -1.75 8.125 -4 7 C-2.68 6.67 -1.36 6.34 0 6 C0 4.02 0 2.04 0 0 Z " fill="#838382" transform="translate(84,91)"/>
<path d="M0 0 C2.97 0 5.94 0 9 0 C8.01 0.495 8.01 0.495 7 1 C6.67 1.99 6.34 2.98 6 4 C4.35 3.67 2.7 3.34 1 3 C0.67 2.01 0.34 1.02 0 0 Z " fill="#484847" transform="translate(86,92)"/>
<path d="M0 0 C0.99 0.33 1.98 0.66 3 1 C3 2.32 3 3.64 3 5 C2.34 5 1.68 5 1 5 C1 7.31 1 9.62 1 12 C0.67 12 0.34 12 0 12 C-0.19573608 10.56359829 -0.38127816 9.12580496 -0.5625 7.6875 C-0.66691406 6.88699219 -0.77132812 6.08648437 -0.87890625 5.26171875 C-1 3 -1 3 0 0 Z " fill="#7A7A7A" transform="translate(114,67)"/>
<path d="M0 0 C0.33 0 0.66 0 1 0 C1.55353075 11.70615034 1.55353075 11.70615034 -2 16 C-3.25240315 12.24279056 -2.4357968 11.58949199 -1 8 C-0.54444124 5.33597161 -0.27373407 2.69171836 0 0 Z " fill="#A3A3A2" transform="translate(59,139)"/>
<path d="M0 0 C0.33 1.32 0.66 2.64 1 4 C1.99 4 2.98 4 4 4 C4 3.34 4 2.68 4 2 C5.65 2.33 7.3 2.66 9 3 C8.443125 3.268125 7.88625 3.53625 7.3125 3.8125 C4.80287477 5.10122647 2.40665764 6.52926478 0 8 C0 5.36 0 2.72 0 0 Z " fill="#C3C3C3" transform="translate(81,120)"/>
<path d="M0 0 C0 1.65 0 3.3 0 5 C-3.34373475 4.44271087 -6.03312999 3.64826111 -9 2 C-6.13119883 0.56559942 -3.20485087 0 0 0 Z " fill="#353534" transform="translate(131,116)"/>
<path d="M0 0 C-0.33 0.66 -0.66 1.32 -1 2 C-3 2.66666667 -5 3.33333333 -7 4 C-7.33 4.66 -7.66 5.32 -8 6 C-8.33 4.68 -8.66 3.36 -9 2 C-3.375 -1.125 -3.375 -1.125 0 0 Z " fill="#393938" transform="translate(78,17)"/>
<path d="M0 0 C0.33 2.31 0.66 4.62 1 7 C-0.32 6.67 -1.64 6.34 -3 6 C-3.33 4.35 -3.66 2.7 -4 1 C-1 0 -1 0 0 0 Z " fill="#868586" transform="translate(31,145)"/>
<path d="M0 0 C0.66 0 1.32 0 2 0 C2.33 2.31 2.66 4.62 3 7 C1.35 6.67 -0.3 6.34 -2 6 C-1.34 4.02 -0.68 2.04 0 0 Z " fill="#F2F2F2" transform="translate(74,125)"/>
<path d="M0 0 C0 0.66 0 1.32 0 2 C-2.31 2 -4.62 2 -7 2 C-6.67 3.32 -6.34 4.64 -6 6 C-6.99 5.67 -7.98 5.34 -9 5 C-8.67 3.35 -8.34 1.7 -8 0 C-2.25 -1.125 -2.25 -1.125 0 0 Z " fill="#666666" transform="translate(106,154)"/>
<path d="M0 0 C-0.66 1.65 -1.32 3.3 -2 5 C-3.32 4.67 -4.64 4.34 -6 4 C-5.34 3.01 -4.68 2.02 -4 1 C-4.66 0.67 -5.32 0.34 -6 0 C-3 -1 -3 -1 0 0 Z " fill="#717171" transform="translate(100,74)"/>
<path d="M0 0 C3.63 0 7.26 0 11 0 C11.66 1.32 12.32 2.64 13 4 C11.35 4 9.7 4 8 4 C8.33 3.34 8.66 2.68 9 2 C6.03 1.67 3.06 1.34 0 1 C0 0.67 0 0.34 0 0 Z " fill="#4B4B4B" transform="translate(95,51)"/>
<path d="M0 0 C1.13643966 3.40931897 0.86747764 4.00335456 -0.4375 7.1875 C-0.72496094 7.90292969 -1.01242188 8.61835938 -1.30859375 9.35546875 C-1.53675781 9.89816406 -1.76492187 10.44085938 -2 11 C-2.99 11 -3.98 11 -5 11 C-3.35 7.37 -1.7 3.74 0 0 Z " fill="#2F2F30" transform="translate(154,140)"/>
<path d="M0 0 C0.33 0 0.66 0 1 0 C0.609375 6.0546875 0.609375 6.0546875 0 8 C-2.046875 9.2578125 -2.046875 9.2578125 -4 10 C-3.52449439 8.51965236 -3.04448784 7.04074979 -2.5625 5.5625 C-2.29566406 4.73878906 -2.02882812 3.91507812 -1.75390625 3.06640625 C-1 1 -1 1 0 0 Z " fill="#292928" transform="translate(132,117)"/>
<path d="M0 0 C-0.66 1.32 -1.32 2.64 -2 4 C-4.97 3.67 -7.94 3.34 -11 3 C-11 2.67 -11 2.34 -11 2 C-9.5422647 1.664061 -8.08378894 1.33133376 -6.625 1 C-5.40683594 0.7215625 -5.40683594 0.7215625 -4.1640625 0.4375 C-2 0 -2 0 0 0 Z " fill="#504F4F" transform="translate(99,103)"/>
<path d="M0 0 C1.62566606 0.47690204 3.25051311 0.95659666 4.875 1.4375 C5.77992187 1.70433594 6.68484375 1.97117187 7.6171875 2.24609375 C10 3 10 3 12 4 C7.89208635 5.54046762 4.21433421 4.75996191 0 4 C-0.33 3.34 -0.66 2.68 -1 2 C-0.67 1.34 -0.34 0.68 0 0 Z " fill="#5A5A58" transform="translate(76,96)"/>
<path d="M0 0 C0.66 0.33 1.32 0.66 2 1 C1.0409375 2.051875 1.0409375 2.051875 0.0625 3.125 C-2.16386102 6.22841233 -2.65080943 8.24620139 -3 12 C-3.33 12 -3.66 12 -4 12 C-4.49230769 4.61538462 -4.49230769 4.61538462 -2 1.5 C-1.34 1.005 -0.68 0.51 0 0 Z " fill="#868686" transform="translate(77,72)"/>
<path d="M0 0 C1.9375 0.5625 1.9375 0.5625 4 2 C4.75 5.625 4.75 5.625 5 9 C0.57142857 3.85714286 0.57142857 3.85714286 0 0 Z " fill="#676767" transform="translate(105,34)"/>
<path d="M0 0 C2.97 0.495 2.97 0.495 6 1 C6.33 1.99 6.66 2.98 7 4 C6.01 4 5.02 4 4 4 C4 3.34 4 2.68 4 2 C2.35 2.33 0.7 2.66 -1 3 C-0.67 2.01 -0.34 1.02 0 0 Z " fill="#474747" transform="translate(100,14)"/>
<path d="M0 0 C0.66 0.33 1.32 0.66 2 1 C1.01 3.97 0.02 6.94 -1 10 C-3.05825864 5.88348273 -3.34008135 5.13191749 -2 1 C-1.34 0.67 -0.68 0.34 0 0 Z " fill="#7A7A7A" transform="translate(57,146)"/>
<path d="M0 0 C1.65 0.33 3.3 0.66 5 1 C2.82575883 3.50037734 1.26954202 4.43628586 -2 5 C-1.34 3.35 -0.68 1.7 0 0 Z " fill="#E9E9E9" transform="translate(94,129)"/>
<path d="M0 0 C0.99 0.33 1.98 0.66 3 1 C2.34 2.32 1.68 3.64 1 5 C-0.65 5 -2.3 5 -4 5 C-3.34 4.01 -2.68 3.02 -2 2 C-1.34 2 -0.68 2 0 2 C0 1.34 0 0.68 0 0 Z " fill="#8E8E8D" transform="translate(55,116)"/>
<path d="M0 0 C4.21912747 0.4794463 6.79663178 1.16625119 10 4 C7.36 4 4.72 4 2 4 C1.34 2.68 0.68 1.36 0 0 Z " fill="#717170" transform="translate(85,105)"/>
<path d="M0 0 C0.33 0.99 0.66 1.98 1 3 C0.071875 3.185625 0.071875 3.185625 -0.875 3.375 C-3.19120832 3.87197356 -3.19120832 3.87197356 -5 6 C-5.99 5.01 -6.98 4.02 -8 3 C-5.64561267 1.57055055 -4.51967567 0.91338739 -1.75 1.375 C-1.1725 1.58125 -0.595 1.7875 0 2 C0 1.34 0 0.68 0 0 Z " fill="#878787" transform="translate(74,85)"/>
<path d="M0 0 C0.66 0 1.32 0 2 0 C2 1.32 2 2.64 2 4 C2.99 4.33 3.98 4.66 5 5 C2.36 5 -0.28 5 -3 5 C-1.625 2.5 -1.625 2.5 0 0 Z " fill="#6F6F6F" transform="translate(79,71)"/>
<path d="M0 0 C2.0625 0.4375 2.0625 0.4375 4 1 C3.34 3.31 2.68 5.62 2 8 C0.26216175 5.39324263 -0.50215905 3.98704569 -1 1 C-0.67 0.67 -0.34 0.34 0 0 Z " fill="#767675" transform="translate(117,59)"/>
<path d="M0 0 C1.32 1.32 2.64 2.64 4 4 C3.67 4.99 3.34 5.98 3 7 C2.01 6.67 1.02 6.34 0 6 C0 4.02 0 2.04 0 0 Z " fill="#ADAEAD" transform="translate(74,100)"/>
<path d="M0 0 C-1.20703125 1.51953125 -1.20703125 1.51953125 -3 3 C-5.26171875 3.07421875 -5.26171875 3.07421875 -7.6875 2.6875 C-8.89986328 2.50767578 -8.89986328 2.50767578 -10.13671875 2.32421875 C-10.75160156 2.21722656 -11.36648437 2.11023438 -12 2 C-12 1.67 -12 1.34 -12 1 C-7.95858806 0.36605303 -4.0934693 -0.12404452 0 0 Z " fill="#5B5B5A" transform="translate(100,97)"/>
<path d="M0 0 C0.66 0.33 1.32 0.66 2 1 C1.34 1.66 0.68 2.32 0 3 C-0.6425235 5.06874034 -0.6425235 5.06874034 -1 7 C-1.66 7 -2.32 7 -3 7 C-3.33 5.35 -3.66 3.7 -4 2 C-2.125 0.9375 -2.125 0.9375 0 0 Z " fill="#9E9E9E" transform="translate(104,66)"/>
<path d="M0 0 C0 1.32 0 2.64 0 4 C-1.65 4.33 -3.3 4.66 -5 5 C-4.625 3.0625 -4.625 3.0625 -4 1 C-2 0 -2 0 0 0 Z " fill="#303130" transform="translate(104,150)"/>
<path d="M0 0 C2.97 1.98 2.97 1.98 6 4 C5.01 5.485 5.01 5.485 4 7 C2 5.1875 2 5.1875 0 3 C0 2.01 0 1.02 0 0 Z " fill="#91918F" transform="translate(74,98)"/>
<path d="M0 0 C0 0.66 0 1.32 0 2 C0.66 2.33 1.32 2.66 2 3 C-0.64 3 -3.28 3 -6 3 C-6 2.34 -6 1.68 -6 1 C-3 0 -3 0 0 0 Z " fill="#484848" transform="translate(85,76)"/>
<path d="M0 0 C2.875 -0.125 2.875 -0.125 6 0 C6.66 0.66 7.32 1.32 8 2 C5.69 2.33 3.38 2.66 1 3 C0.67 2.01 0.34 1.02 0 0 Z " fill="#282828" transform="translate(97,58)"/>
<path d="M0 0 C1.26339822 3.79019466 0.49719015 5.37522384 -1 9 C-1.99 9.495 -1.99 9.495 -3 10 C-2.49287967 6.28111761 -1.88391785 3.26545761 0 0 Z " fill="#333333" transform="translate(67,21)"/>
</svg>
